<?xml version="1.0" standalone="no"?>
<!DOCTYPE svg PUBLIC "-//W3C//DTD SVG 1.1//EN" "http://www.w3.org/Graphics/SVG/1.1/DTD/svg11.dtd" >
<svg xmlns="http://www.w3.org/2000/svg">
<metadata></metadata>
<defs>
<font id="corporateacyrdemi_italic" horiz-adv-x="1024" >
<font-face units-per-em="2048" ascent="1638" descent="-410" />
<missing-glyph horiz-adv-x="512" />
<glyph horiz-adv-x="2048" />
<glyph horiz-adv-x="2048" />
<glyph unicode="&#xd;" horiz-adv-x="512" />
<glyph unicode=" "  horiz-adv-x="512" />
<glyph unicode="&#x09;" horiz-adv-x="512" />
<glyph unicode="&#xa0;" horiz-adv-x="512" />
<glyph unicode="!" horiz-adv-x="555" d="M61 96q0 33 14.5 65t39 56.5t55.5 38.5t63 14q53 0 87 -32.5t34 -85.5q0 -35 -13 -66t-36.5 -54.5t-54.5 -37.5t-64 -14q-53 0 -89 32.5t-36 83.5zM205 438l164 916h245l-282 -916h-127z" />
<glyph unicode="&#x22;" horiz-adv-x="751" d="M248 817l106 549h187l-166 -549h-127zM553 817l109 549h184l-164 -549h-129z" />
<glyph unicode="#" horiz-adv-x="1234" d="M43 424l55 135h230l110 272h-227l53 136h230l161 399h156l-162 -399h275l161 399h156l-162 -399h228l-56 -136h-227l-111 -272h228l-56 -135h-227l-172 -424h-158l172 424h-274l-172 -424h-154l172 424h-229zM483 559h275l110 272h-274z" />
<glyph unicode="$" horiz-adv-x="1093" d="M43 164l74 315h59q-6 -39 -8 -60.5t-2 -49.5q0 -270 244 -308l137 555q-55 35 -110.5 70t-104.5 80q-53 49 -79 100.5t-26 114.5q0 84 38 158.5t103.5 130t152.5 88.5t186 33q6 0 14 -1t20 -1l41 165h70l-43 -172q43 -6 79 -16t83 -33q51 -23 71 -22q16 0 32 5t42 21 l-86 -370h-61q4 29 6 44t2 38q0 219 -186 262l-121 -484q8 -6 11 -8t11 -6t24.5 -15.5t53.5 -33.5q63 -39 105.5 -76t69 -75t37.5 -78.5t11 -90.5q0 -96 -42 -181t-112.5 -148.5t-164.5 -101.5t-201 -38h-14l-41 -163h-72l43 170q-51 8 -94 20t-83 33.5t-81 52.5t-88 76z M451 1073q0 -59 34.5 -104t124.5 -103l113 451q-121 -6 -196.5 -74.5t-75.5 -169.5zM479 59q63 6 117.5 32t93.5 67t60.5 93.5t21.5 113.5q0 31 -7 56t-25.5 50t-50.5 50.5t-81 56.5z" />
<glyph unicode="%" horiz-adv-x="1386" d="M184 946q0 86 32 164t85 137.5t123 94t145 34.5q100 0 156.5 -58.5t56.5 -164.5q0 -86 -30.5 -165t-83 -138t-120 -94t-142.5 -35q-104 0 -163 59.5t-59 165.5zM254 0l870 1333h99l-871 -1333h-98zM330 891q0 -115 88 -115q55 0 97 49t77 158q23 66 34 122t11 101 q0 53 -22.5 83t-61.5 30q-104 0 -176 -195q-23 -59 -35 -122.5t-12 -110.5zM713 215q0 86 31.5 164t84 137t122 94t145.5 35q102 0 157.5 -59.5t55.5 -163.5q0 -86 -31 -165t-82 -138.5t-119.5 -94t-144.5 -34.5q-104 0 -161.5 59.5t-57.5 165.5zM856 160q0 -115 88 -115 q57 0 99 49t77 156q43 135 43 225q0 53 -21.5 83t-60.5 30q-106 0 -178 -195q-23 -59 -35 -122.5t-12 -110.5z" />
<glyph unicode="&#x26;" horiz-adv-x="1200" d="M27 285q0 63 20.5 126.5t58.5 114.5q57 76 133 130.5t154 105.5q-35 66 -58.5 126t-23.5 136q0 66 30 124t82 101t122.5 68.5t150.5 25.5q123 0 196 -60t73 -161q0 -72 -42 -146.5t-118 -133.5q-23 -18 -39 -29.5t-32.5 -24t-39 -26.5t-57.5 -35l207 -434 q29 31 54.5 64.5t44 65.5t29.5 60.5t11 46.5q0 27 -19.5 36t-72.5 14l16 67q59 -4 87 -6t61 -2h30.5t31 1t38 3t51.5 4l-16 -67q-49 -4 -69.5 -9.5t-35.5 -19.5q-10 -10 -16 -21.5t-25 -54.5q-39 -84 -73.5 -138t-89.5 -114l39 -76q29 -57 59.5 -76.5t97.5 -21.5l-12 -55 q-31 2 -53.5 3t-40 2t-31.5 1h-33q-35 0 -63.5 -1t-83.5 -5l-47 96q-86 -59 -163 -86t-165 -27q-80 0 -145.5 23t-113.5 62.5t-73.5 97t-25.5 125.5zM227 258q0 -90 52.5 -140t146.5 -50q31 0 59.5 4t58 15t63.5 28.5t75 42.5l-217 456q-78 -53 -117 -90t-67 -84 q-27 -41 -40.5 -88t-13.5 -94zM504 1059q0 -47 23.5 -100.5t41.5 -94.5q135 86 193.5 154.5t58.5 142.5q0 49 -31.5 82t-80.5 33q-41 0 -78 -17.5t-65.5 -48t-45 -69.5t-16.5 -82z" />
<glyph unicode="'" horiz-adv-x="446" d="M248 817l106 549h187l-166 -549h-127z" />
<glyph unicode="(" horiz-adv-x="661" d="M104 215q0 158 43 325t121 320q86 166 201 299t268 240h82q-47 -43 -79.5 -77t-59.5 -65.5t-52.5 -67.5t-56.5 -83q-47 -74 -87 -153t-74 -165q-70 -174 -106 -346t-36 -336q0 -88 9.5 -165.5t31.5 -157.5q8 -35 16.5 -59.5t17.5 -48t21.5 -49t30.5 -58.5h-67 q-109 123 -166.5 290t-57.5 357z" />
<glyph unicode=")" horiz-adv-x="661" d="M-162 -432q45 43 79 75.5t61.5 65.5t53 69t56.5 83q96 150 164 317q72 176 108.5 352.5t36.5 341.5q0 86 -8 160t-31 154q-8 33 -16 58.5t-17.5 49t-20.5 48t-30 57.5h68q104 -121 161.5 -287t57.5 -352q0 -160 -44 -328t-126 -326q-86 -166 -201.5 -298t-269.5 -240h-82 z" />
<glyph unicode="*" d="M354 1141l66 104l201 -139l47 240l120 -29l-71 -236l244 31l8 -125l-246 -4l104 -221l-116 -47l-78 231l-180 -168l-80 96l196 148z" />
<glyph unicode="+" horiz-adv-x="1095" d="M158 614v150h366v364h158v-364h369v-150h-369v-364h-158v364h-366z" />
<glyph unicode="," horiz-adv-x="524" d="M-70 -410q45 47 79 95.5t65 103.5q31 53 48 98t32 109q-10 -2 -23 -2q-47 0 -74.5 30.5t-27.5 79.5q0 31 13 61t35.5 51.5t52.5 34.5t63 13q59 0 95 -40.5t36 -106.5q0 -53 -21.5 -119t-58.5 -135.5t-89.5 -140t-113.5 -132.5h-111z" />
<glyph unicode="-" horiz-adv-x="430" d="M-8 432l41 168h430l-41 -168h-430z" />
<glyph unicode="." horiz-adv-x="524" d="M31 96q0 35 14 67t37.5 55.5t54.5 37.5t66 14q53 0 87 -32.5t34 -85.5q0 -70 -50.5 -121t-119.5 -51q-53 0 -88 32.5t-35 83.5z" />
<glyph unicode="/" horiz-adv-x="1103" d="M-96 -397l1157 1763h149l-1157 -1763h-149z" />
<glyph unicode="0" horiz-adv-x="1095" d="M123 377q0 117 20.5 235.5t59.5 228t91 205t118 164.5q133 143 336 144q160 0 241.5 -105.5t81.5 -310.5q0 -102 -18.5 -208.5t-52 -208t-80 -192.5t-103.5 -163q-147 -186 -368 -186q-158 0 -242 102t-84 295zM332 256q0 -104 33.5 -158.5t97.5 -54.5q90 0 159.5 100.5 t139.5 333.5q49 172 74.5 320.5t25.5 277.5q0 102 -35.5 158.5t-97.5 56.5q-90 0 -159.5 -99t-139.5 -335q-47 -164 -72.5 -316.5t-25.5 -283.5z" />
<glyph unicode="1" horiz-adv-x="1095" d="M137 -6l17 67q68 2 108.5 10.5t67 28t41 54t28.5 90.5l217 868l-210 -8l16 63q41 4 71.5 8.5t57.5 12.5t52.5 19.5t60.5 27.5q33 18 57 32.5t44.5 32t39 40t41.5 53.5h65l-288 -1166q-6 -25 -10.5 -48t-4.5 -36q0 -41 36 -59t130 -23l-16 -67q-53 4 -92 7t-73 4t-67.5 2 t-72.5 1q-41 0 -74 -1t-68 -2t-76.5 -4t-97.5 -7z" />
<glyph unicode="2" horiz-adv-x="1095" d="M23 0l38 156l45 39q53 47 96.5 85.5t88.5 79.5t99 92.5t128 122.5q49 47 91 90.5t77 82.5q160 172 160 301q0 72 -47 113.5t-125 41.5q-61 0 -119.5 -27.5t-101.5 -74.5q-16 -16 -27.5 -30.5t-22 -32t-20.5 -38t-23 -51.5h-86q20 61 42 108.5t45.5 84.5t51 66.5 t62.5 54.5q121 90 291 90q145 0 230 -69.5t85 -190.5q0 -86 -43 -170t-137 -183q-31 -33 -65.5 -65.5t-79.5 -73.5t-104.5 -92t-139.5 -119q-66 -53 -115 -94t-84 -70l-41 -32h605l-78 -195h-776z" />
<glyph unicode="3" horiz-adv-x="1095" d="M82 379h86q23 -125 92.5 -190.5t179.5 -65.5q61 0 114.5 25.5t93.5 68.5t62.5 102.5t22.5 126.5q0 111 -70.5 161t-228.5 55l21 77q53 0 94 5.5t74.5 15.5t60.5 27.5t53 41.5q43 41 66.5 95.5t23.5 109.5q0 78 -50 127t-128 49q-88 0 -152.5 -51t-119.5 -168h-82 q35 111 75 173.5t101 109.5q104 80 248 80q74 0 134 -21.5t103 -60.5t67 -93.5t24 -117.5q0 -131 -87.5 -219t-259.5 -127q131 -33 192.5 -101.5t61.5 -185.5q0 -96 -36.5 -178t-100 -141.5t-151.5 -94t-189 -34.5q-182 0 -285.5 104t-109.5 295z" />
<glyph unicode="4" horiz-adv-x="1095" d="M-4 330l8 26l793 985h247l-202 -843h205l-41 -168h-201l-82 -330h-221l82 330h-588zM221 498h408l192 766z" />
<glyph unicode="5" horiz-adv-x="1095" d="M90 352h86q27 -111 91.5 -169t162.5 -58q66 0 122 31.5t98 86t65.5 128t23.5 159.5q0 113 -53 179.5t-145 66.5q-78 0 -142.5 -35.5t-128.5 -113.5l-77 10l286 696h631l-76 -184h-545l-155 -369q82 70 151.5 97.5t159.5 27.5q160 0 246 -94t86 -268q0 -121 -38 -224.5 t-105.5 -178t-159.5 -117.5t-201 -43q-176 0 -275.5 96t-107.5 276z" />
<glyph unicode="6" horiz-adv-x="1095" d="M92 346q0 162 88 334q43 84 105.5 163t154.5 169q37 35 70 64.5t69.5 59t79.5 62.5t99 72q31 23 52 37t39.5 25t36 21.5t42.5 22.5h127q-31 -23 -53.5 -38t-43 -30.5t-43 -34t-53.5 -44.5q-47 -41 -84 -76t-69.5 -70.5t-64.5 -74.5t-71 -88l-26 -35q45 20 78.5 28.5 t74.5 8.5q135 0 214 -89.5t79 -242.5q0 -127 -42 -237.5t-115.5 -193.5t-172 -131t-210.5 -48q-168 0 -264.5 97t-96.5 269zM303 229q0 -84 39 -135t104 -51q150 0 250 250q37 92 56.5 182t19.5 170q0 92 -35 142.5t-100 50.5q-147 0 -248 -234q-39 -88 -62.5 -192.5 t-23.5 -182.5z" />
<glyph unicode="7" horiz-adv-x="1095" d="M117 0l860 1145l-674 -4l55 192h856l-905 -1333h-192z" />
<glyph unicode="8" horiz-adv-x="1095" d="M100 272q0 154 93.5 266.5t263.5 163.5q-82 31 -120 83.5t-38 136.5q0 88 37 165.5t100.5 137t147.5 94.5t178 35q147 0 229 -68.5t82 -191.5q0 -141 -81 -247t-222 -149q186 -63 186 -252q0 -98 -39.5 -183t-109.5 -147.5t-162 -99t-199 -36.5q-160 0 -253 78.5 t-93 213.5zM315 209q0 -78 36 -122t98 -44q145 0 233 211q25 59 39 126t14 120q0 74 -36.5 118t-96.5 44q-55 0 -106.5 -38t-91 -101.5t-64.5 -145.5t-25 -168zM504 864q0 -63 30.5 -100t79.5 -37q123 0 199 191q23 59 36 119.5t13 111.5q0 66 -27.5 103.5t-76.5 37.5 q-123 0 -197 -178q-27 -59 -42 -126.5t-15 -121.5z" />
<glyph unicode="9" horiz-adv-x="1095" d="M131 -43q31 20 54.5 36.5t44 32t42 34t52.5 44.5q47 41 82.5 75t68.5 70t65.5 74.5t71.5 90.5l27 35q-45 -20 -79 -28.5t-75 -8.5q-135 0 -213.5 88t-78.5 241q0 127 41.5 239t115.5 194.5t172.5 131t210.5 48.5q170 0 265.5 -96.5t95.5 -270.5q0 -328 -340 -657 q-37 -35 -71 -67t-72 -62.5t-82 -63.5t-99 -71q-31 -23 -52.5 -38.5t-40 -26.5t-36.5 -21.5t-43 -22.5h-127zM414 686q0 -90 34.5 -140t100.5 -50q152 0 248 233q39 96 62.5 197.5t23.5 177.5q0 84 -40 135t-104 51q-147 0 -250 -250q-35 -90 -55 -182t-20 -172z" />
<glyph unicode=":" horiz-adv-x="524" d="M31 96q0 35 14 67t37.5 55.5t54.5 37.5t66 14q53 0 87 -32.5t34 -85.5q0 -70 -50.5 -121t-119.5 -51q-53 0 -88 32.5t-35 83.5zM190 745q0 35 14.5 67t38 55.5t54.5 38t65 14.5q53 0 87 -34t34 -87q0 -35 -14 -66t-36.5 -53.5t-54.5 -36.5t-65 -14q-53 0 -88 32.5 t-35 83.5z" />
<glyph unicode=";" horiz-adv-x="524" d="M-70 -410q45 49 80 96.5t66 102.5q29 53 46 98t32 109q-10 -2 -21 -2q-47 0 -75.5 30.5t-28.5 79.5q0 31 13 61t35.5 51.5t52.5 34.5t63 13q59 0 95 -40.5t36 -106.5q0 -53 -21.5 -119t-59.5 -136.5t-89.5 -140t-112.5 -131.5h-111zM186 745q0 35 14.5 67t38 55.5 t54.5 38t65 14.5q53 0 87 -34t34 -87q0 -35 -14 -66t-36.5 -53.5t-54.5 -36.5t-65 -14q-53 0 -88 32.5t-35 83.5z" />
<glyph unicode="&#x3c;" d="M86 707v14l852 543v-88l-614 -398l614 -411v-232z" />
<glyph unicode="=" horiz-adv-x="1095" d="M190 475v143h893v-143h-893zM190 760v143h893v-143h-893z" />
<glyph unicode="&#x3e;" d="M86 135v88l614 398l-614 409v234l852 -572v-14z" />
<glyph unicode="?" horiz-adv-x="872" d="M150 96q0 33 14 65t38.5 56.5t55.5 38.5t64 14q53 0 86.5 -32.5t33.5 -85.5q0 -35 -13 -66t-36.5 -54.5t-54.5 -37.5t-64 -14q-53 0 -88.5 32.5t-35.5 83.5zM244 1016q41 170 150.5 263t267.5 93q131 0 210.5 -72.5t79.5 -193.5q0 -98 -49 -172t-164 -143l-155 -95 q-90 -53 -133 -114.5t-60 -153.5h-88q8 68 18.5 115t26.5 82q23 47 70 96t141 125q51 39 83 68.5t50.5 56t24.5 51.5t6 55q0 66 -41 107t-107 41q-82 0 -146 -53.5t-105 -155.5h-80z" />
<glyph unicode="@" horiz-adv-x="1470" d="M-14 674q0 150 55 280.5t150.5 226t225.5 150.5t279 55q135 0 252 -43t202 -118.5t133 -180t48 -225.5q0 -104 -37 -200.5t-98 -171t-141 -119.5t-166 -45q-72 0 -106.5 36.5t-45.5 124.5q-33 -43 -60.5 -71.5t-54 -46t-54 -24.5t-60.5 -7q-55 0 -103.5 21.5t-84 58.5 t-55 88t-19.5 112q0 86 34.5 167t93 143.5t133.5 99.5t157 37q135 0 167 -145l35 127h168l-147 -541q-6 -23 -8 -36t-2 -24q0 -29 14 -45t37 -16q27 0 56.5 15.5t60 41t59.5 62.5t53 80q35 63 55.5 135t20.5 137q0 98 -41 184t-112.5 149.5t-169 100.5t-210.5 37 q-131 0 -241.5 -46t-191.5 -127t-127 -191.5t-46 -241.5q0 -129 47 -238.5t130 -189.5t199 -125t251 -45q88 0 158.5 21.5t144.5 70.5q31 20 53.5 37.5t43 38t41 46t44.5 62.5h113q-25 -47 -46.5 -79.5t-44 -58t-48 -49.5t-62.5 -50q-96 -72 -195.5 -105.5t-215.5 -33.5 q-154 0 -286 53t-228.5 146t-151.5 220t-55 275zM414 512q0 -72 32.5 -118t85.5 -46q63 0 121 64.5t99 185.5q16 51 29.5 109.5t13.5 103.5v10q0 68 -29 108t-78 40q-61 0 -117.5 -57.5t-101.5 -161.5q-27 -63 -41 -125t-14 -113z" />
<glyph unicode="A" horiz-adv-x="1310" d="M-96 -6l16 65q49 4 81 11.5t59.5 28t55 57.5t68.5 102l738 1165h22l115 -1216q4 -43 12 -70.5t26.5 -43t49.5 -24t78 -10.5l-17 -65q-45 4 -77.5 7t-63.5 4t-62.5 2t-72.5 1t-73 -1t-62.5 -2t-65.5 -4t-80 -7l15 65q49 2 79.5 7.5t48 15.5t23.5 26.5t6 41.5v15t-2 28 l-12 188h-459l-106 -172q-41 -66 -41 -98q0 -29 22.5 -38.5t98.5 -13.5l-17 -65q-37 2 -63.5 4t-48 4t-42 2h-44.5h-45.5t-43 -2t-50 -4t-66.5 -4zM397 453h406l-35 598z" />
<glyph unicode="B" horiz-adv-x="1187" d="M-55 0l16 66q55 2 89 8t55.5 21.5t34 42t22.5 69.5l237 952q6 23 9.5 43.5t3.5 30.5q0 35 -30 48t-114 17l17 68h516q201 0 293 -62.5t92 -197.5q0 -129 -86 -229.5t-236 -143.5q121 -29 176.5 -87t55.5 -163q0 -70 -21.5 -136t-59.5 -123.5t-91.5 -101.5t-114.5 -69 q-133 -53 -334 -53h-530zM377 121q0 -25 18.5 -36t65.5 -11h63q98 0 165 44t114 136q31 61 46 125t15 123q0 96 -52 136t-177 40h-125l-121 -483q-12 -55 -12 -74zM528 750h111q104 0 166.5 36.5t105.5 122.5q27 51 41.5 109.5t14.5 107.5q0 94 -48.5 130t-175.5 36h-79z " />
<glyph unicode="C" horiz-adv-x="1198" d="M115 459q0 104 20.5 207.5t59 201t93 184.5t122.5 154q190 190 454 191q41 0 74 -3t64.5 -11.5t66.5 -22.5t82 -37q41 -20 66 -20q16 0 33.5 5t45.5 21l-84 -385h-59v45q0 328 -266 328q-137 0 -249 -98.5t-189 -290.5q-49 -119 -76 -247t-27 -245q0 -164 76 -252 t213 -88q156 0 267.5 98.5t162.5 284.5h74q-53 -244 -199.5 -377t-361.5 -133q-221 0 -342 127t-121 363z" />
<glyph unicode="D" horiz-adv-x="1357" d="M-55 0l16 66q55 2 90 8t55.5 21.5t33 42t22.5 69.5l237 952q6 23 9.5 43.5t3.5 30.5q0 35 -30 48t-114 17l17 68h530q88 0 155.5 -7t119 -23.5t90.5 -43t69 -65.5q51 -63 75 -143t24 -191q0 -119 -26 -230.5t-75 -210t-118.5 -180.5t-155.5 -139q-104 -70 -221 -101.5 t-275 -31.5h-532zM375 127q0 -31 20.5 -42t71.5 -11q131 0 217 25.5t150 86.5q61 59 112 148.5t90 196t60.5 222t21.5 226.5q0 225 -129 285q-64 28 -182 28h-8h-135l-275 -1095q-14 -51 -14 -70z" />
<glyph unicode="E" horiz-adv-x="1128" d="M-55 0l16 66q55 2 90 8t55.5 21.5t33 42t22.5 69.5l237 952q12 51 13 76q0 35 -29 47t-115 16l17 68h915l-37 -340h-57v33q0 70 -9.5 116t-35 71.5t-68.5 35.5t-110 10h-219l-136 -540h424l-20 -86h-426l-121 -494q-6 -25 -6 -41q0 -57 113 -57h118q102 0 165 32.5 t128 118.5q14 20 25.5 34.5t20.5 30t18.5 32t21.5 38.5h55l-145 -360h-954z" />
<glyph unicode="F" horiz-adv-x="1038" d="M-57 -6l16 65q55 2 90 8.5t55.5 20.5t33 41t22.5 72l239 958q12 49 13 76q0 33 -30 46t-114 17l17 68h921l-37 -340h-57q0 16 1 26.5t1 18.5q0 66 -10 109t-36 67.5t-69 34.5t-110 10h-225l-136 -540h430l-20 -86h-432l-115 -465q-12 -47 -12 -72q0 -37 29.5 -51.5 t115.5 -18.5l-16 -65q-47 4 -81 7t-64.5 4t-62.5 2t-71 1q-41 0 -71.5 -1t-62.5 -2t-67.5 -4t-84.5 -7z" />
<glyph unicode="G" horiz-adv-x="1296" d="M106 424q0 199 61.5 374t168 306t248 208t301.5 77q39 0 73.5 -4.5t69.5 -14.5t71 -25.5t77 -37.5q25 -14 39 -19.5t28 -5.5q16 0 34.5 5t51.5 22l-92 -369h-61q2 23 3 35t1 24q0 160 -69 244t-200 84q-268 0 -448 -407q-59 -139 -94 -286t-35 -269q0 -154 71.5 -240 t200.5 -86q53 0 105.5 11t111.5 38l92 367q4 12 5.5 25.5t1.5 21.5q0 33 -25 45t-98 16l16 66q41 -4 72 -6t57.5 -4.5t53 -2.5h61.5h60.5t55 2.5t59.5 4.5t75 6l-17 -66q-43 -4 -70.5 -8t-44 -16.5t-25.5 -33t-17 -54.5l-93 -367q-246 -106 -458 -107q-229 0 -353.5 115 t-124.5 332z" />
<glyph unicode="H" horiz-adv-x="1406" d="M-57 -6l16 65q55 2 90 8.5t55.5 20.5t33 41t22.5 72l241 964q6 29 9.5 45.5t3.5 30.5q0 35 -30 48.5t-114 17.5l17 65q45 -4 79.5 -7t64.5 -5t59.5 -3t66.5 -1t66.5 1t61.5 3t70 5t89 7l-17 -65q-53 -2 -86.5 -8.5t-54 -20.5t-33 -41t-22.5 -72l-105 -417h498l104 417 q12 51 13 76q0 35 -31 48.5t-111 17.5l15 65q49 -4 85 -7t66.5 -5t60 -3t66.5 -1t68 1t61.5 3t66.5 5t83 7l-15 -65q-55 -2 -88.5 -8.5t-55 -21.5t-34 -42t-22.5 -70l-242 -964q-12 -47 -12 -78q0 -35 28.5 -47.5t114.5 -16.5l-16 -65q-47 4 -81 7t-63.5 4t-60.5 2t-68 1 t-67.5 -1t-62 -2t-68.5 -4t-86 -7l16 65q53 2 87 8.5t54.5 20.5t31.5 41t24 72l119 475h-494l-119 -475q-14 -55 -14 -76q0 -35 28.5 -48.5t110.5 -17.5l-16 -65q-49 4 -85 7t-67 4t-61.5 2t-67.5 1t-66.5 -1t-60.5 -2t-66.5 -4t-82.5 -7z" />
<glyph unicode="I" horiz-adv-x="681" d="M-57 -6l16 65q55 2 89 8.5t55.5 21.5t34 42t22.5 70l241 964q12 51 13 76q0 35 -31 48.5t-113 17.5l17 65q49 -4 85 -7t66.5 -5t60 -3t64.5 -1t64.5 1t61.5 3t69 5t86 7l-15 -65q-53 -2 -86.5 -8.5t-55 -21.5t-34 -42t-22.5 -70l-242 -964q-6 -23 -8 -43.5t-2 -34.5 q0 -35 28.5 -47.5t110.5 -16.5l-16 -65q-49 4 -84 7t-65.5 4t-60.5 2t-65 1q-37 0 -66.5 -1t-61 -2t-68.5 -4t-88 -7z" />
<glyph unicode="J" horiz-adv-x="675" d="M-166 -143l21 80q23 -4 35 -5.5t24 -1.5q47 0 88 18.5t70 49.5q31 37 58.5 107.5t55.5 189.5l220 870q6 27 10 45.5t4 32.5q0 33 -32 46.5t-114 17.5l17 65q49 -4 85 -7t66.5 -5t59 -3t63.5 -1q33 0 62.5 1t60.5 3t69 5t91 7l-17 -65q-53 -2 -86.5 -8.5t-54 -21.5 t-33 -42t-22.5 -70l-223 -895q-35 -145 -86.5 -227t-132.5 -129q-59 -35 -125 -49.5t-146 -14.5q-29 0 -44 1.5t-44 5.5z" />
<glyph unicode="K" horiz-adv-x="1308" d="M-57 -6l16 65q55 2 90 8.5t55.5 21.5t33 42t22.5 70l241 964q4 23 8.5 43.5t4.5 32.5q0 33 -33 47.5t-111 18.5l17 65q49 -4 86 -7t68.5 -5t62.5 -3t67 -1q37 0 67 1t59.5 3t64.5 5t82 7l-17 -65q-53 -2 -85.5 -8.5t-54 -21.5t-34 -42t-22.5 -70l-119 -475l555 496 q33 29 44 45t11 33q0 23 -22.5 31t-83.5 12l14 65q39 -4 66.5 -5t50 -2t45 -1h49.5q51 0 93 1t120 7l-16 -65q-45 -4 -79 -12.5t-70 -28t-81 -55t-112 -93.5l-326 -287l213 -577q41 -111 80 -149.5t104 -38.5q25 0 42.5 3t50.5 13l-19 -66q-49 -18 -94 -27t-94 -9 q-133 0 -201 79q-29 33 -53.5 82t-53.5 127l-151 420l-105 -92l-98 -395q-14 -55 -14 -76q0 -35 25.5 -47t103.5 -19l-17 -65q-41 4 -69.5 7t-56 4t-56 2t-67.5 1t-71 -1t-64.5 -2t-71.5 -4t-90 -7z" />
<glyph unicode="L" horiz-adv-x="1052" d="M-55 0l16 66q55 2 90 8t55.5 20.5t33 41t22.5 71.5l239 958q12 51 13 76q0 35 -31 48.5t-113 17.5l17 65q49 -4 85 -7t66.5 -5t60 -3t64.5 -1t64.5 1t61.5 3t69 5t88 7l-17 -65q-53 -2 -86.5 -8.5t-55 -21.5t-34 -42t-22.5 -70l-242 -970q-8 -31 -10 -41.5t-2 -20.5 q0 -35 22.5 -47t77.5 -12h117q47 0 86 7t71.5 25.5t63.5 47t64 71.5q29 37 45 62.5t39 72.5h59l-145 -360h-932z" />
<glyph unicode="M" horiz-adv-x="1705" d="M-59 -6l16 65q53 6 85 20.5t54 39.5q14 14 25.5 34.5t25 57.5t32 95.5t44.5 152.5l205 706q10 41 10 74q0 35 -29.5 48t-113.5 18l16 67q31 -4 54.5 -5t44 -3t42 -2h48.5h56.5t51 2t53 3t64.5 5l115 -979l604 979q39 -4 68.5 -5t55 -3t50 -2h53.5h47.5t41 2t44 3t56.5 5 l-17 -65q-55 -4 -90 -10.5t-56.5 -21.5t-32.5 -41t-22 -69l-210 -917q-6 -29 -12.5 -56.5t-6.5 -56.5q0 -41 28.5 -56.5t108.5 -19.5l-16 -65q-49 4 -85 7t-66.5 4t-60.5 2t-65 1t-64.5 -1t-61 -2t-68.5 -4t-88 -7l16 65q55 2 89 8.5t55.5 20.5t34 41t22.5 70l262 1071 l-758 -1231h-30l-140 1231l-293 -1071q-6 -25 -10 -42.5t-4 -29.5q0 -37 28.5 -50.5t108.5 -17.5l-16 -65q-68 4 -105.5 6t-87.5 2h-43t-43.5 -1t-52 -3t-67.5 -4z" />
<glyph unicode="N" horiz-adv-x="1357" d="M-66 -6l17 65q51 6 86 16.5t57.5 35t40 65.5t35.5 109q23 84 43 167t43 169l154 614q-29 39 -61 53.5t-91 18.5l16 65q31 -2 52.5 -4t42 -3t41 -1h45.5h45t39.5 1t41 3t50.5 4l413 -989l189 766q14 55 14 88q0 37 -28.5 51.5t-110.5 18.5l16 65q37 -2 62.5 -4t48 -3 t44 -1h48.5h46.5t44 1t49 3t61.5 4l-17 -65q-53 -4 -86.5 -12.5t-56 -27t-37 -51t-26.5 -83.5l-293 -1170h-33l-506 1231l-217 -879q-4 -14 -10 -38.5t-12.5 -51t-10.5 -50t-4 -38.5q0 -43 26.5 -58.5t108.5 -19.5l-16 -65q-37 2 -63.5 4t-49 3t-44 1h-46.5q-49 0 -89 -2 t-112 -6z" />
<glyph unicode="O" horiz-adv-x="1302" d="M119 463q0 195 56 364.5t153.5 295.5t229.5 199t284 73q217 0 334.5 -127t117.5 -363q0 -197 -56 -366.5t-153.5 -296.5t-228.5 -200t-283 -73q-217 0 -335.5 128t-118.5 366zM350 360q0 -154 59.5 -240.5t168.5 -86.5q236 0 387 440q49 141 73.5 277.5t24.5 257.5 q0 152 -58.5 238.5t-160.5 86.5q-121 0 -214 -99t-169 -308q-53 -150 -82 -296.5t-29 -269.5z" />
<glyph unicode="P" horiz-adv-x="1144" d="M-57 -6l16 65q55 2 90 8.5t55.5 20.5t33 41t22.5 72l239 958q12 49 13 76q0 35 -30 47t-114 16l17 68h538q123 0 191.5 -15.5t120.5 -54.5q45 -35 70.5 -93t25.5 -124q0 -131 -64.5 -244.5t-173.5 -170.5q-70 -35 -148.5 -52.5t-178.5 -17.5h-177l-98 -393 q-6 -27 -9 -43.5t-3 -30.5q0 -35 29.5 -49.5t115.5 -18.5l-16 -65q-49 4 -85 7t-66.5 4t-60.5 2t-67 1t-66.5 -1t-62 -2t-69.5 -4t-88 -7zM506 666h108q123 0 199 45t127 143q31 59 47.5 126t16.5 126q0 100 -55.5 143t-186.5 43h-98z" />
<glyph unicode="Q" horiz-adv-x="1298" d="M117 455q0 117 23.5 230.5t66.5 217t103.5 192.5t133.5 154q80 72 182.5 109t213.5 37q217 0 334.5 -125.5t117.5 -358.5q0 -102 -17.5 -203.5t-49 -195.5t-78.5 -178t-105 -150q-86 -98 -190 -149t-242 -64q10 -4 18.5 -5t12.5 -3q10 -4 27.5 -12t44.5 -21 q80 -39 129 -39q100 0 196 93l-26 -109q-119 -125 -250 -125q-41 0 -80 11.5t-92 39.5q-41 23 -66.5 35t-44 18.5t-32 8.5t-31.5 2q-59 0 -112.5 -35t-115.5 -113l37 156q86 92 209 113q-317 90 -317 469zM348 362q0 -154 63.5 -241.5t174.5 -87.5q233 0 379 440 q47 147 72.5 282.5t25.5 254.5q0 154 -57.5 238.5t-161.5 84.5q-229 0 -383 -407q-55 -147 -84 -290.5t-29 -273.5z" />
<glyph unicode="R" horiz-adv-x="1296" d="M-57 -6l16 65q55 2 90 8.5t55.5 20.5t33 41t22.5 70l239 960q12 45 13 72q0 37 -30 50t-114 17l17 68h512q68 0 116 -2t84.5 -8t64.5 -15.5t52 -23.5q55 -31 86 -90.5t31 -136.5q0 -123 -69.5 -225.5t-190.5 -155.5q-23 -10 -42.5 -17.5t-39 -12.5t-44 -10t-57.5 -12 q39 -14 67 -28.5t46.5 -38t30.5 -56t24 -83.5l41 -183q14 -59 28.5 -99t34 -62.5t46.5 -31.5t63 -9q25 0 42.5 3t50.5 13l-17 -66q-49 -18 -94 -27t-94 -9q-66 0 -119 21.5t-82 57.5q-25 31 -44 80t-38 129l-47 203q-12 57 -25.5 92t-34 54.5t-51 25.5t-77.5 6h-37 l-113 -450q-8 -33 -10 -46.5t-2 -25.5q0 -37 27.5 -50.5t111.5 -17.5l-16 -65q-47 4 -81 7t-62.5 4t-58.5 2t-67 1t-67.5 -1t-63 -2t-69.5 -4t-88 -7zM520 721h123q113 0 185.5 40t117.5 126q27 53 42.5 112.5t15.5 112.5q0 102 -56.5 141t-202.5 39h-81z" />
<glyph unicode="S" horiz-adv-x="1064" d="M29 164l71 315h62q-6 -39 -8 -59.5t-2 -48.5q0 -147 73.5 -230.5t208.5 -83.5q68 0 126 24.5t102.5 65.5t70 97.5t25.5 120.5q0 33 -8.5 58.5t-29 51t-54 51t-84.5 58.5q-78 49 -125 79.5t-78 53t-49.5 40t-38.5 38.5q-78 82 -78 186q0 86 38 159.5t103.5 129t153.5 87.5 t190 32q70 0 129.5 -12.5t126.5 -43.5q45 -22 72 -22h2q16 0 31.5 5t42.5 21l-88 -370h-60q4 29 6.5 45t2.5 39q0 127 -63.5 196.5t-180.5 69.5q-59 0 -110.5 -19.5t-90.5 -52.5t-60.5 -77t-21.5 -95q0 -59 40 -107t138 -112l115 -74q51 -33 96 -64.5t79 -70.5t54.5 -87 t20.5 -114q0 -96 -42 -181t-113.5 -149.5t-168 -101.5t-202.5 -37q-72 0 -128.5 12.5t-105.5 37t-95 59.5t-95 80z" />
<glyph unicode="T" horiz-adv-x="1085" d="M145 -6l17 65q55 2 89 8.5t54.5 20.5t32.5 41t22 72l273 1091h-74q-57 0 -102 -13t-84 -46t-76 -86t-76 -133h-61l147 352h922l-29 -352h-59v30q0 137 -46 192.5t-159 55.5h-74l-272 -1091q-6 -23 -8 -43.5t-2 -36.5q0 -31 29.5 -44.5t111.5 -17.5l-16 -65q-47 4 -82 7 t-66 4t-60.5 2t-68.5 1t-69.5 -1t-61.5 -2t-66.5 -4t-85.5 -7z" />
<glyph unicode="U" horiz-adv-x="1343" d="M190 291q0 35 9.5 89t21.5 105l170 680q6 25 8 43.5t2 32.5q0 35 -29.5 48.5t-113.5 17.5l16 65q49 -4 86 -7t68 -5t58.5 -3t62.5 -1t63.5 1t60.5 3t69.5 5t91.5 7l-17 -65q-53 -2 -87 -8.5t-54.5 -21.5t-32.5 -42t-22 -70l-175 -696q-12 -49 -21 -104.5t-9 -83.5 q0 -90 67.5 -142.5t178.5 -52.5q133 0 228 69.5t142 202.5q16 47 30.5 96.5t35.5 127.5l125 508q16 70 23 99.5t7 45.5q0 39 -27.5 53.5t-109.5 18.5l17 65q35 -2 61.5 -4t49 -3t44 -1h47.5q51 0 91 2t112 6l-16 -65q-72 -6 -111 -29t-61 -70q-8 -16 -20.5 -53t-27 -86 t-31 -107.5t-30.5 -117.5l-88 -348q-18 -70 -33.5 -121t-34 -92t-40 -74t-50.5 -64q-76 -84 -180 -126t-233 -42q-184 0 -288 83t-104 231z" />
<glyph unicode="V" horiz-adv-x="1128" d="M156 1307l16 65q49 -4 87 -7t73 -5t69.5 -3t77.5 -1q39 0 67.5 1t53.5 2t51.5 4t61.5 9l-17 -65l-14 -2q-78 -10 -105.5 -25.5t-27.5 -54.5v-21l69 -909l394 680q39 66 64.5 112t41 78.5t21.5 53t6 34.5q0 49 -66 50h-19t-28 -5l-10 60q154 12 260 69q8 -23 11 -35t3 -28 q0 -66 -59 -166l-748 -1243h-45l-137 1194q-6 47 -14 76.5t-24.5 46t-43 24t-69.5 11.5z" />
<glyph unicode="W" horiz-adv-x="1646" d="M182 1307l17 65q43 -4 73.5 -7t60 -5t59.5 -3t69 -1t69.5 1t60.5 3t62.5 5t77.5 7l-16 -65q-49 -4 -81 -11.5t-49.5 -18.5t-23.5 -30.5t-6 -48.5l-2 -809l553 1016h84l35 -1016l348 664q35 66 57.5 122t22.5 78q0 49 -72 50q-10 0 -18.5 -1.5t-26.5 -3.5l-8 60 q90 4 157.5 20.5t120.5 48.5q4 -14 5 -23.5t1 -19.5q0 -27 -9 -56.5t-36 -76.5q-20 -35 -32.5 -59.5t-20.5 -38.5l-639 -1192h-45l-29 1104l-606 -1102h-45l-33 1190q-2 43 -8 70.5t-21.5 45t-41 26t-64.5 12.5z" />
<glyph unicode="X" horiz-adv-x="1216" d="M-119 -6l17 65q47 4 79.5 11.5t63.5 26t64.5 50t82.5 86.5l379 420l-137 518q-10 37 -22.5 61.5t-32 40t-49 23t-72.5 11.5l16 65q43 -4 76 -7t63.5 -5t63.5 -2h76h74.5t62.5 2t62.5 5t74.5 7l-16 -65q-82 -4 -117 -22.5t-35 -55.5q0 -10 2 -19.5t9 -31.5l90 -338 l278 313q61 68 62 107q0 40 -61 40h-3h-17t-22 -2l-6 60q90 8 152.5 23.5t126.5 45.5q4 -23 5 -33t1 -20q0 -37 -19.5 -73.5t-47 -70.5t-59.5 -65.5t-56 -58.5l-314 -344l144 -531q14 -51 27.5 -83.5t33.5 -52t48 -28t71 -8.5h18l-16 -65q-47 4 -82 7t-65.5 4t-61.5 2t-70 1 t-70.5 -1t-63.5 -2t-68.5 -4t-85.5 -7l16 65q90 6 118.5 22.5t28.5 59.5q0 10 -4 27.5t-14 58.5l-90 344l-320 -354q-41 -45 -56 -69.5t-15 -41.5q0 -25 20.5 -34t85.5 -13l-16 -65q-35 2 -60.5 4t-48 3t-45 1h-49.5q-53 0 -93 -2t-112 -6z" />
<glyph unicode="Y" horiz-adv-x="1054" d="M145 -6l17 65q57 2 92 8.5t56.5 21.5t33.5 42t23 70l96 389l-127 575q-16 74 -51 104.5t-111 37.5l14 65q43 -4 76 -7t62.5 -5t60.5 -2h72h69.5t61.5 2t65.5 5t81.5 7l-16 -65q-88 -6 -120 -21.5t-32 -52.5v-15.5t4 -27.5l97 -520l315 450q43 59 57.5 87t14.5 50 q0 43 -66 43h-18t-25 -2l-8 60q96 10 159.5 25.5t125.5 43.5q4 -20 5 -28.5t1 -18.5q0 -29 -12.5 -57.5t-47.5 -75.5l-477 -655l-98 -391q-12 -49 -12 -80t28.5 -44.5t106.5 -17.5l-17 -65q-49 4 -84.5 7t-66.5 4t-60.5 2t-64.5 1t-63.5 -1t-60.5 -2t-68.5 -4t-88.5 -7z" />
<glyph unicode="Z" horiz-adv-x="1048" d="M-82 0l995 1292h-251q-63 0 -113.5 -12t-93.5 -43t-84 -81t-84 -126h-68l141 336h867l-996 -1292h338q51 0 92 7t75 23.5t66 44t66 68.5q18 20 30.5 37.5l25 35t26 38t29.5 49.5h45l-139 -377h-967z" />
<glyph unicode="[" horiz-adv-x="661" d="M4 -397l440 1763h385l-16 -61h-217l-410 -1641h220l-17 -61h-385z" />
<glyph unicode="\" horiz-adv-x="1103" d="M344 1366h148l278 -1763h-147z" />
<glyph unicode="]" horiz-adv-x="661" d="M-158 -397l15 61h219l407 1641h-217l17 61h383l-439 -1763h-385z" />
<glyph unicode="^" d="M-53 582l571 852h14l545 -852h-88l-397 614l-412 -614h-233z" />
<glyph unicode="_" d="M41 -182h942v-101h-942v101z" />
<glyph unicode="`" d="M358 1376h316l76 -291h-82z" />
<glyph unicode="a" horiz-adv-x="1097" d="M45 299q0 131 46 255t123 221t175 155.5t203 58.5q174 0 186 -170l43 150q37 0 62.5 1t49 3t49.5 6t62 10l-194 -684q-10 -35 -16.5 -59.5t-10.5 -41t-5 -28.5t-1 -24q0 -29 13.5 -47.5t35.5 -18.5q33 0 58.5 24.5t64.5 90.5l49 -25q-53 -104 -113.5 -150t-140.5 -46 q-158 0 -170 174q-59 -92 -121.5 -133t-148.5 -41q-137 0 -218 86t-81 233zM254 203q0 -78 30.5 -122t84.5 -44q158 0 264 299q20 59 38.5 121.5t33 120t21.5 105.5t7 83q0 78 -31.5 122t-89.5 44q-72 0 -133 -72t-127 -231q-45 -113 -71.5 -229.5t-26.5 -196.5z" />
<glyph unicode="b" horiz-adv-x="1034" d="M121 299q0 41 8 97.5t29 133.5l155 619q6 29 10.5 50.5t4.5 33.5q0 29 -22.5 41t-80.5 12h-22l12 47q100 8 190.5 23.5t188.5 40.5l-131 -529q33 35 61.5 58.5t56 37t57.5 19.5t67 6q135 0 211.5 -85.5t76.5 -239.5q0 -135 -45 -259t-121.5 -218.5t-177 -150.5 t-211.5 -56q-147 0 -232 86t-85 233zM324 193q0 -70 29.5 -111t82.5 -41q172 0 281 352q31 96 49 201.5t18 177.5q0 76 -29.5 118t-82.5 42q-137 0 -244 -262q-23 -55 -42 -119t-33.5 -127.5t-21.5 -122.5t-7 -108z" />
<glyph unicode="c" horiz-adv-x="878" d="M53 322q0 135 45 256.5t121 214t176.5 146.5t210.5 54q47 0 87 -8t87 -29q43 -18 68 -18q14 0 27.5 5t35.5 22l-73 -340h-54q4 31 6.5 48t2.5 40q0 104 -41 160.5t-115 56.5q-172 0 -293 -299q-37 -90 -57.5 -182.5t-20.5 -167.5q0 -106 48 -166t135 -60q94 0 166.5 70 t113.5 201h86q-115 -350 -422 -351q-160 0 -250 91.5t-90 255.5z" />
<glyph unicode="d" horiz-adv-x="1097" d="M51 315q0 129 44 251t118 215t169 150.5t198 57.5q76 0 118.5 -26.5t77.5 -94.5l70 281q8 31 11 51.5t3 30.5q0 31 -21.5 43t-76.5 12h-21l13 47q100 8 190 23.5t182 40.5l-254 -1024q-12 -53 -21 -89t-14.5 -60.5t-7.5 -41t-2 -28.5q0 -31 15.5 -49.5t38.5 -18.5 q31 0 56.5 24.5t59.5 90.5l52 -25q-53 -109 -110.5 -152.5t-139.5 -43.5q-156 0 -178 149q-51 -78 -110.5 -113.5t-145.5 -35.5q-143 0 -228.5 91t-85.5 244zM260 213q0 -84 32 -130t91 -46q78 0 143.5 76.5t112.5 222.5q39 123 62.5 240.5t23.5 189.5q0 76 -33 121t-92 45 q-150 0 -256 -303q-41 -111 -62.5 -220.5t-21.5 -195.5z" />
<glyph unicode="e" horiz-adv-x="901" d="M51 313q0 135 46 257t125 215.5t181.5 148.5t214.5 55q125 0 200 -59.5t75 -159.5q0 -76 -46 -141.5t-127 -113.5t-193.5 -77.5t-247.5 -34.5q-18 -72 -19 -135q0 -98 51 -155.5t142 -57.5q92 0 170.5 69t119.5 185h88q-63 -160 -177.5 -244.5t-266.5 -84.5 q-156 0 -246 89t-90 244zM295 471q86 0 161.5 25.5t131 70.5t87.5 106.5t32 131.5q0 55 -28 91t-73 36q-92 0 -175 -123t-136 -338z" />
<glyph unicode="f" horiz-adv-x="630" d="M-219 -389l14 67q90 16 143.5 54.5t84.5 109.5q23 49 44 122t44 177l165 750h-141l17 70l20 2q68 6 96.5 21t46.5 67l50 139q76 213 311 213q104 0 166.5 -43t62.5 -115q0 -47 -26.5 -78.5t-67.5 -31.5q-35 0 -59.5 22.5t-24.5 54.5q0 16 6 33q4 12 11.5 23.5t7.5 23.5 q0 25 -19.5 40.5t-50.5 15.5q-25 0 -41 -7.5t-29.5 -28t-26 -55t-24.5 -90.5l-47 -202h217l-16 -74h-217l-144 -641q-16 -68 -32.5 -135.5t-38.5 -132.5q-35 -102 -101 -183q-150 -182 -401 -188z" />
<glyph unicode="g" horiz-adv-x="942" d="M-68 -172q0 172 232 225q-82 55 -82 115q0 61 53 107.5t180 97.5q-172 80 -172 248q0 78 32 145.5t88 116.5t131 77.5t161 28.5q72 0 123 -15.5t100 -49.5l256 10l-24 -98l-172 4q33 -57 32 -129q0 -90 -36.5 -165t-104.5 -122q-27 -18 -53.5 -31.5t-59 -22t-72.5 -12.5 t-91 -6q-205 -49 -205 -116q0 -14 5 -23.5t24.5 -16t56.5 -10.5t98 -10q92 -8 153.5 -17t104.5 -26q141 -53 141 -205q0 -80 -33.5 -144.5t-96 -108.5t-151.5 -68.5t-200 -24.5q-195 0 -306.5 64.5t-111.5 181.5zM23 -168q0 -57 35.5 -93t87 -55.5t107.5 -25.5t99 -6 q141 0 218 51t77 143q0 82 -72.5 118t-236.5 36q-315 0 -315 -168zM332 539q0 -61 32.5 -98.5t92.5 -37.5q115 0 178 166q23 59 35 123t12 111q0 59 -30.5 94t-86.5 35q-113 0 -178 -156q-25 -55 -40 -122.5t-15 -114.5z" />
<glyph unicode="h" horiz-adv-x="1144" d="M59 0l287 1149q10 39 13 56.5t3 27.5q0 29 -23.5 41t-80.5 12h-22l12 47q100 8 190 23.5t189 40.5l-133 -535q127 127 284 127q104 0 167 -56t63 -151q0 -29 -5.5 -63.5t-15.5 -75.5l-98 -389q-18 -72 -19 -111q0 -59 48 -59q25 0 42 13.5t29 31.5t21.5 39.5t17.5 40.5 l51 -19q-63 -210 -235 -210h-2q-82 0 -133.5 47t-51.5 125q0 29 8.5 73.5t28.5 128.5l78 312q18 68 19 110q0 51 -32 81t-87 30q-86 0 -145.5 -62.5t-88.5 -183.5l-159 -641h-220z" />
<glyph unicode="i" horiz-adv-x="600" d="M102 147q0 29 11.5 79t31.5 128l109 404q6 23 11 43t5 43q0 29 -23.5 39t-96.5 10l12 47q98 8 191 24.5t190 41.5l-205 -752q-20 -76 -21 -113q0 -57 45 -57q33 0 55.5 24.5t59.5 100.5l49 -19q-37 -111 -95 -160.5t-146 -49.5q-82 0 -132.5 46t-50.5 121zM356 1235 q0 31 12.5 58.5t33 49t47 35t55.5 13.5q47 0 75.5 -31t28.5 -80q0 -63 -41 -108.5t-106 -45.5q-45 0 -75 32t-30 77z" />
<glyph unicode="j" horiz-adv-x="555" d="M-258 -389l16 67q90 16 144.5 54.5t89.5 109.5q23 49 48.5 128t47.5 171l150 617q6 29 11 51t5 33q0 31 -22.5 41t-94.5 10l10 47q98 10 187.5 24.5t185.5 41.5l-186 -756q-16 -63 -39 -139t-41 -129q-37 -104 -107 -185q-78 -92 -177 -137t-228 -49zM332 1235 q0 31 12 58.5t32.5 49t47.5 35t55 13.5q47 0 76 -31t29 -80q0 -63 -41 -108.5t-107 -45.5q-45 0 -74.5 32t-29.5 77z" />
<glyph unicode="k" horiz-adv-x="1075" d="M59 0l287 1149q6 29 10 51.5t4 32.5q0 33 -23.5 42t-98.5 11l12 47q96 8 190.5 24.5t186.5 39.5l-228 -912l328 297q61 55 61 90q0 25 -20 35.5t-74 14.5l13 51q33 -4 57 -5t47 -3t47.5 -2h54.5h55.5t51.5 2t57.5 3t71.5 5l-12 -51q-37 -4 -69 -12.5t-62.5 -24t-63.5 -38 t-72 -54.5l-188 -160l160 -434q31 -84 56.5 -112t70.5 -28q16 0 35.5 4.5t35.5 8.5l-12 -54q-45 -23 -84 -30.5t-80 -7.5q-90 0 -146 49t-102 168l-110 290l-133 -114l-94 -373h-220z" />
<glyph unicode="l" horiz-adv-x="598" d="M111 152q0 29 10 80t26 122l207 836q6 25 6 43q0 31 -24.5 42t-97.5 11l12 47q100 8 190 23.5t189 40.5l-287 -1143q-18 -80 -18 -109q0 -61 49 -61q33 0 55.5 25.5t54.5 99.5l49 -19q-41 -115 -94 -162.5t-141 -47.5q-84 0 -135 47t-51 125z" />
<glyph unicode="m" horiz-adv-x="1624" d="M59 0l187 750q4 18 11 44.5t7 45.5q0 29 -21.5 39t-80.5 10h-27l12 47q55 6 99.5 13t82.5 14.5t71.5 15.5t68.5 18v-39q0 -61 -12 -131q59 78 136 120t167 42q86 0 135 -38t72 -124q119 162 301 162q104 0 163.5 -50t59.5 -138q0 -59 -23 -146l-100 -401 q-12 -49 -15 -72.5t-3 -40.5q0 -57 47 -57q25 0 42 13.5t29.5 31.5t21.5 39.5t17 40.5l49 -19q-66 -210 -233 -210h-2q-82 0 -133 47t-51 123q0 27 7 67.5t17 85.5l88 359q10 45 15.5 71.5t5.5 48.5q0 47 -29 74t-76 27q-72 0 -125 -55.5t-77 -153.5l-168 -674h-222l170 682 q16 59 17 100q0 47 -27.5 74t-75.5 27q-74 0 -131 -58.5t-82 -160.5l-165 -664h-220z" />
<glyph unicode="n" horiz-adv-x="1148" d="M59 0l187 750q4 23 10 44t6 44q0 29 -20.5 41t-73.5 12q-4 0 -11 -1t-20 -1l10 47q104 12 177 25.5t143 35.5q2 -16 2 -23v-18q0 -47 -12 -133q135 166 321 166q106 0 169 -55t63 -148q0 -68 -25 -161l-74 -295q-12 -47 -19 -78t-11 -51.5t-5.5 -32.5t-1.5 -25 q0 -59 48 -59q14 0 26.5 5t24.5 18.5t26.5 38t32.5 63.5l49 -19q-35 -111 -92 -160.5t-143 -49.5q-84 0 -135.5 47t-51.5 125q0 25 8.5 64.5t18.5 86.5l84 344q10 39 15.5 72t5.5 57q0 51 -32 81t-85 30q-86 0 -146.5 -63.5t-89.5 -182.5l-159 -641h-220z" />
<glyph unicode="o" horiz-adv-x="1003" d="M59 340q0 137 43 256t118 206t176.5 137t217.5 50q160 0 250 -96t90 -266q0 -135 -43 -254t-116.5 -206t-174 -137t-214.5 -50q-164 0 -255.5 94t-91.5 266zM268 236q0 -199 144 -199q84 0 145 71.5t115 227.5q35 104 54 205.5t19 187.5q0 39 -5 75t-21.5 64.5t-45 46 t-73.5 17.5q-152 0 -248 -275q-84 -242 -84 -421z" />
<glyph unicode="p" horiz-adv-x="1073" d="M-41 -403l285 1148q16 66 16 91q0 33 -20.5 43t-75.5 14l-27 2l10 45q47 4 83 8t72 9.5t75 12.5t90 19v-41q0 -23 -1 -44t-7 -68q66 82 129 117.5t143 35.5q139 0 218 -91t79 -251q0 -131 -43 -252t-115.5 -213t-168 -147t-199.5 -55q-74 0 -116 25.5t-83 92.5l-125 -501 h-219zM354 207q0 -78 35 -124t94 -46q80 0 141.5 70.5t112.5 220.5q18 55 33.5 113.5t27 114.5t17.5 106.5t6 89.5q0 86 -31.5 133t-89.5 47q-72 0 -135 -64.5t-106 -181.5q-23 -61 -42.5 -129t-32.5 -131.5t-21.5 -120.5t-8.5 -98z" />
<glyph unicode="q" horiz-adv-x="1064" d="M51 311q0 131 46 253t123 216t176.5 151.5t205.5 57.5q158 0 201 -155q18 53 32.5 85.5t38.5 69.5q31 -8 52.5 -14t42 -9t42 -6.5t50.5 -5.5q-35 -57 -57.5 -114.5t-42.5 -134.5l-277 -1108h-219l125 501q-33 -35 -60.5 -57.5t-56.5 -36.5t-59.5 -19t-67.5 -5 q-137 0 -216 89t-79 242zM258 199q0 -74 33 -118t88 -44q162 0 260 285q20 57 37.5 120.5t30 123t19.5 112.5t7 92q0 78 -31.5 120t-91.5 42q-152 0 -264 -309q-41 -113 -64.5 -223.5t-23.5 -200.5z" />
<glyph unicode="r" horiz-adv-x="782" d="M59 0l199 811q4 20 4 31q0 29 -20.5 38t-79.5 9h-25l10 47q100 6 171 18.5t135 32.5q4 -16 4 -26.5v-24.5q0 -70 -27 -176q72 119 139.5 170t153.5 51q63 0 102 -37t39 -98q0 -59 -34.5 -100t-88.5 -41q-39 0 -63.5 23.5t-24.5 57.5q0 43 41 64q-12 33 -49 33 q-74 0 -147 -127q-29 -49 -52.5 -115t-50.5 -172l-116 -469h-220z" />
<glyph unicode="s" horiz-adv-x="870" d="M27 115l45 221h55q-2 -23 -2 -32v-23q0 -109 59.5 -173.5t159.5 -64.5q45 0 85 15.5t68.5 43t46 65.5t17.5 81q0 49 -21.5 80.5t-86.5 72.5l-109 70q-53 33 -87 61.5t-55.5 55t-29.5 55.5t-8 64q0 61 26.5 113t74.5 90t111.5 60.5t137.5 22.5q45 0 83 -8t91 -27 q45 -16 68 -16q16 0 32.5 6t47.5 23l-58 -279h-57q2 14 2 23.5v15.5q0 90 -47 141.5t-131 51.5q-39 0 -73 -12.5t-59.5 -32t-40 -46t-14.5 -57.5q0 -37 20.5 -64.5t72.5 -60.5l108 -67q59 -37 99 -69t65 -62.5t35 -63.5t10 -72q0 -74 -30.5 -136t-86 -108t-131.5 -72 t-164 -26q-102 0 -177 32t-152 108z" />
<glyph unicode="t" horiz-adv-x="622" d="M119 186q0 35 8 87.5t35 160.5l108 457h-125l17 67q76 4 132 36t114 102q18 23 30.5 41t22.5 36.5t21.5 40t23.5 52.5h72l-74 -301h209l-19 -74h-209l-116 -535q-31 -139 -31 -180q0 -43 22.5 -68.5t59.5 -25.5q27 0 53.5 9t73.5 38l-19 -74q-53 -39 -105 -56t-110 -17 q-92 0 -143 54t-51 150z" />
<glyph unicode="u" horiz-adv-x="1153" d="M119 195q0 51 20 131l109 432q14 55 14 82q0 35 -22.5 44t-98.5 9l11 47q98 8 190 24.5t186 41.5l-172 -693q-10 -35 -14 -66.5t-4 -49.5q0 -53 30.5 -84t82.5 -31q63 0 119.5 44t91.5 122q16 35 30.5 81t26.5 97l137 543q37 0 60.5 1t46 3t49 6t69.5 10l-170 -680 q-16 -68 -21 -97.5t-5 -53.5q0 -29 14 -48.5t37 -19.5q33 0 58.5 24.5t60.5 90.5l49 -25q-53 -106 -109.5 -152t-140.5 -46q-158 0 -178 165q-74 -88 -146.5 -126.5t-164.5 -38.5q-113 0 -179.5 57t-66.5 156z" />
<glyph unicode="v" horiz-adv-x="935" d="M61 922l13 51l53 -4q53 -4 99 -6t87 -2q39 0 86 2t103 6l53 4l-12 -51h-21q-63 0 -81.5 -14.5t-18.5 -51.5v-17.5t2 -17.5l55 -567l305 500q35 57 47.5 82.5t12.5 44.5q0 47 -66 47h-26l-11 47q84 8 138.5 24.5t103.5 44.5q8 -20 10 -31.5t2 -25.5q0 -16 -3 -30.5 t-12 -35t-26.5 -49t-48.5 -75.5l-543 -832h-49l-120 811q-6 47 -13.5 75t-21 43t-36 20.5t-61.5 7.5z" />
<glyph unicode="w" horiz-adv-x="1406" d="M78 924l12 51q45 -4 78 -6t58.5 -3t47 -1h48.5h48t47.5 1t59.5 3t80 6l-12 -51q-37 -4 -59.5 -9.5t-35 -17.5t-16.5 -33.5t-4 -56.5l12 -528l424 727h66l61 -736l279 504q39 70 39 103q0 51 -82 51h-21l-10 49q86 10 137 24.5t103 42.5q10 -25 14 -38t4 -29 q0 -14 -3 -26.5t-10 -30t-20.5 -41t-33.5 -58.5l-502 -854h-60l-61 742l-436 -742h-56l-67 770q-6 61 -12.5 98t-18.5 55.5t-35.5 25t-62.5 8.5z" />
<glyph unicode="x" horiz-adv-x="1011" d="M-109 -6l13 51q35 4 59.5 11t49 23.5t55 44.5t77.5 75l258 256l-124 372q-16 49 -47 71t-91 24l13 51q43 -4 75.5 -5t60 -3t54.5 -2h62h57t46.5 2t46.5 3t54 5l-12 -53q-49 -8 -69.5 -21.5t-20.5 -40.5q0 -10 5 -25.5t15 -50.5l56 -168l176 193q31 35 44 54.5t13 33.5 q0 18 -15.5 25.5t-53.5 7.5h-9l-6 49q70 8 119 23.5t109 43.5q6 -18 9 -28t3 -21q0 -31 -16.5 -61.5t-40 -58t-50 -54l-47.5 -47.5l-215 -221l94 -277q18 -55 34 -90.5t29 -56t27.5 -29t32.5 -8.5q33 0 59.5 23.5t57.5 81.5l47 -25q-51 -100 -113.5 -146t-150.5 -46 q-47 0 -81 10t-60.5 36.5t-49 71.5t-45.5 115l-59 176l-225 -229q-51 -51 -51 -80q0 -16 14 -23.5t59 -11.5l-14 -51q-33 2 -54.5 4t-39 3t-31.5 1h-31h-30.5t-32 -1t-41 -3t-58.5 -4z" />
<glyph unicode="y" horiz-adv-x="897" d="M-158 -266q63 -25 113 -25q96 0 184 94q31 33 68 80t65 88l41 62l-131 768q-6 35 -13 57.5t-21.5 35.5t-36 19.5t-56.5 8.5l13 51q41 -4 70.5 -5t56 -2t52 -1h56.5h58.5t52 1t57.5 2t74 5l-15 -51q-74 -4 -97 -16.5t-23 -43.5q0 -10 3 -23.5t3 -19.5l65 -534l303 479 q6 8 15.5 24.5t18.5 33t16.5 32.5t7.5 29q0 45 -78 45h-14l-9 49q43 4 74 9t56.5 13.5t49 18.5t52.5 26q8 -29 10 -41t2 -24q0 -27 -15.5 -61.5t-38 -71.5t-47 -72t-40.5 -59l-531 -803q-63 -98 -118.5 -163.5t-96.5 -94.5q-90 -61 -221 -62h-14t-21 2v140z" />
<glyph unicode="z" horiz-adv-x="849" d="M-88 0l829 831q-76 -41 -127 -56t-98 -15q-25 0 -49.5 4t-60.5 14q-23 6 -37.5 10.5t-23.5 6.5t-17.5 3t-16.5 1q-47 0 -75.5 -30t-49.5 -97h-57q27 147 98.5 228t175.5 81q33 0 65 -7t103 -30q63 -20 99.5 -27.5t62.5 -7.5q41 0 76 12.5t76 43.5h82l-822 -822 q66 39 120 56.5t114 17.5q23 0 51.5 -4t52.5 -10q16 -4 47 -12.5t52 -8.5q57 0 98 35t74 111h53q-35 -164 -127 -251t-229 -87q-23 0 -41.5 2t-44 7t-63.5 15.5t-101 28.5q-49 14 -84 14q-53 0 -123 -57h-82z" />
<glyph unicode="{" horiz-adv-x="661" d="M76 -291q0 23 3 50.5t13 62.5l125 497q6 25 8 41.5t2 32.5q0 37 -20.5 62.5t-73.5 52.5q43 14 73 30.5t49 37t31.5 47t22.5 65.5l115 465q12 47 25.5 82t30 60.5t39 43t50.5 31.5q39 18 75 23.5t112 5.5h47q-45 -12 -76 -28.5t-53.5 -41t-39 -61.5t-28.5 -88l-112 -449 q-25 -98 -67 -147t-124 -76q53 -33 73.5 -60.5t20.5 -70.5q0 -20 -4 -44t-10 -48l-125 -504q-12 -53 -12 -82q0 -98 127 -131h-74q-121 0 -172 32.5t-51 108.5z" />
<glyph unicode="|" d="M469 -498v2020h129v-2020h-129z" />
<glyph unicode="}" horiz-adv-x="661" d="M-131 -432q45 12 75.5 28.5t53 41t38 60.5t27.5 89l113 451q25 98 68 147t125 76q-53 31 -74 58.5t-21 70.5q0 45 13 94l127 502q12 51 12 84q0 94 -127 129h74q119 0 171 -33t52 -109q0 -23 -3 -50t-13 -62l-125 -498q-6 -27 -9.5 -41t-3.5 -28q0 -41 21.5 -67t73.5 -50 q-43 -16 -72 -32.5t-48.5 -37t-32.5 -47.5t-22 -65l-114 -463q-25 -96 -57.5 -144.5t-90.5 -74.5q-37 -16 -73.5 -22.5t-110.5 -6.5h-47z" />
<glyph unicode="~" horiz-adv-x="1366" d="M279 1272q119 205 280 205q33 0 70 -9.5t110 -33.5q66 -23 99.5 -31t62.5 -8q106 0 195 106l32 -20q-49 -90 -125.5 -145.5t-152.5 -55.5q-25 0 -48.5 5t-72.5 22l-61 18q-39 12 -64.5 19.5t-44 11.5t-34 6t-33.5 2q-49 0 -84 -17.5t-80 -74.5l-17 -21z" />
<glyph unicode="&#xa3;" horiz-adv-x="1095" d="M-25 0q25 25 44.5 48.5t36 49t32.5 55t33 70.5q23 49 42 100.5t38 102.5l88 238h-148l19 75h155l56 148q57 154 121.5 250t148.5 157q129 94 279 95q245 0 245 -244q0 -14 -1 -25.5l-3 -34.5h-98q4 23 4 34v24q0 78 -34 120t-99 42q-143 0 -240 -177q-12 -20 -20 -38.5 t-18.5 -42t-22.5 -55t-31 -81.5l-65 -172h247l-18 -75h-258l-66 -172q-47 -127 -112.5 -218.5t-167.5 -179.5q49 20 86 33.5t64.5 22t52 11.5t49.5 3q14 0 26.5 -1t26.5 -3t32.5 -6t49.5 -13q41 -10 68.5 -14t50.5 -4q74 0 130 50t109 165h72q-29 -104 -68 -172t-98 -109 q-49 -35 -103.5 -46t-152.5 -11h-582z" />
<glyph unicode="&#xa4;" horiz-adv-x="1366" d="M158 1184l92 92l196 -197q78 55 145.5 79t149.5 24t148.5 -23.5t142.5 -79.5l197 195l90 -90l-195 -195q55 -78 79 -145.5t24 -147.5q0 -78 -23.5 -144.5t-77.5 -141.5l197 -197l-90 -92l-197 196q-135 -102 -293 -102q-78 0 -147.5 24.5t-146.5 77.5l-195 -196l-90 92 l192 195q-102 133 -102 290q0 78 24.5 146.5t77.5 142.5zM406 698q0 -70 26.5 -131t72.5 -107t106.5 -73t129.5 -27q70 0 130.5 27t106.5 73t72.5 107t26.5 131t-26.5 131.5t-71.5 107.5t-106.5 72.5t-131.5 26.5t-131 -26.5t-106 -72.5t-71.5 -107.5t-26.5 -131.5z" />
<glyph unicode="&#xa7;" d="M6 -16q0 20 1 35.5t5 43.5h88q0 -20 -1 -34.5t-1 -24.5q0 -106 59.5 -164.5t170.5 -58.5q106 0 173.5 64.5t67.5 166.5q0 86 -98 158l-211 154q-63 47 -92 97t-29 114q0 49 16.5 96t49.5 84q16 18 33.5 34.5t41 31t54.5 28.5t74 33q-57 53 -82 101t-25 104q0 70 33 132 t90 108t132 74t161 28q147 0 228 -71t81 -200q0 -23 -1 -39t-5 -49h-86q2 25 3 38t1 32q0 92 -49 142t-141 50q-49 0 -91.5 -15t-73 -43t-49 -64.5t-18.5 -79.5q0 -49 24.5 -84t100.5 -88l156 -113q76 -53 106.5 -104.5t30.5 -118.5q0 -205 -266 -314q63 -49 90.5 -98 t27.5 -111q0 -78 -33.5 -143.5t-92 -114.5t-137.5 -76.5t-171 -27.5q-166 0 -256 74.5t-90 212.5zM279 623q0 -35 22.5 -68t71.5 -70l235 -176q176 59 176 180q0 74 -84 138l-235 172q-98 -35 -142 -76t-44 -100z" />
<glyph unicode="&#xa9;" horiz-adv-x="1593" d="M145 682q0 147 55.5 275t152 224.5t224.5 152t275 55.5q145 0 274 -55.5t224.5 -152t150.5 -224.5t55 -275q0 -145 -55 -274t-151.5 -224.5t-224.5 -151t-275 -55.5q-145 0 -274.5 55.5t-224.5 151t-150.5 224.5t-55.5 274zM219 682q0 -131 49 -245.5t135 -200.5 t201 -135.5t246 -49.5t246.5 49.5t201.5 135.5t135.5 200.5t49.5 245.5t-49.5 246.5t-135.5 202t-201.5 135.5t-246.5 49t-246 -50.5t-201 -136.5t-135 -200.5t-49 -245.5zM492 682q0 98 26.5 177t74.5 134.5t116.5 86t152.5 30.5q68 0 118 -19.5t95 -60.5l43 80h33v-274 h-45q-27 113 -80 165t-143 52q-229 0 -230 -357q0 -354 234 -354q100 0 158.5 58.5t64.5 164.5h55q-6 -145 -88 -227t-221 -82q-84 0 -150.5 29.5t-114.5 85t-73.5 134.5t-25.5 177z" />
<glyph unicode="&#xab;" horiz-adv-x="862" d="M100 489l387 478h66l-268 -478l26 -489h-55zM418 489l383 478h69l-272 -478l31 -489h-60z" />
<glyph unicode="&#xac;" d="M70 451v96h884v-547h-221v451h-663z" />
<glyph unicode="&#xad;" horiz-adv-x="430" d="M-8 432l41 168h430l-41 -168h-430z" />
<glyph unicode="&#xae;" d="M254 1139q0 88 34 165.5t91 135t135 91.5t166 34t166 -34t135 -91.5t91 -135t34 -165.5t-34 -166t-91 -135.5t-135 -91t-166 -33.5t-166 33.5t-135 91t-91 135.5t-34 166zM315 1139q0 -76 29 -142.5t78 -116t115.5 -78t142.5 -28.5t142.5 28.5t115.5 78t77.5 116 t28.5 142.5t-28.5 142.5t-77.5 115.5t-115.5 77.5t-142.5 28.5t-142.5 -28.5t-115.5 -77.5t-78 -116t-29 -142zM481 907v33q41 2 50.5 8t9.5 31v313q0 27 -9.5 33t-50.5 8v33h205q78 0 121 -33t43 -92q0 -84 -98 -115q16 -10 27.5 -22t23.5 -39l41 -86q12 -27 20 -33t37 -6 v-33q-23 2 -33 2h-26h-26.5t-31.5 -2l-71 156q-14 31 -27.5 41t-42.5 10h-14v-135q0 -25 9 -31t50 -8v-33q-35 4 -55.5 4h-46.5h-46.5t-58.5 -4zM631 1149h39q90 0 90 90q0 92 -86 92h-43v-182z" />
<glyph unicode="&#xb0;" d="M377 1108q0 59 23.5 111.5t63.5 91.5t93 61.5t115 22.5q61 0 114.5 -22.5t93.5 -61.5t63.5 -91.5t23.5 -111.5t-23.5 -112.5t-63.5 -92.5t-93.5 -61.5t-114.5 -22.5t-114.5 22.5t-93.5 62.5t-63.5 92.5t-23.5 111.5zM485 1108q0 -76 54.5 -130t132.5 -54t132 54t54 130 q0 39 -14.5 72.5t-40 58.5t-59 39t-72.5 14q-78 0 -132.5 -54t-54.5 -130z" />
<glyph unicode="&#xb1;" horiz-adv-x="1095" d="M84 25v151h893v-151h-893zM84 614v150h365v364h163v-364h365v-150h-365v-333h-163v333h-365z" />
<glyph unicode="&#xb5;" horiz-adv-x="925" d="M14 -285q0 14 3 45t12 74q6 35 12 79t12 91t10.5 95t8.5 89q8 86 11 183.5t3 183.5v381h172v-586q0 -152 39 -215t131 -63q66 0 120 34.5t111 116.5v713h170v-690q0 -96 16.5 -128t65.5 -32q16 0 28.5 4t33.5 16v-34l-187 -92q-4 -2 -10 -3q-74 0 -98 127q-2 6 -3 15.5 t-5 23.5q-55 -53 -94 -86.5t-73 -53t-64.5 -27t-69.5 -7.5q-88 0 -141.5 42t-86.5 139v-52q0 -31 1 -52t3 -41.5t5.5 -42t9.5 -54.5l16 -94q12 -66 12 -95q0 -51 -23.5 -80.5t-62.5 -29.5q-41 0 -64.5 28.5t-23.5 77.5z" />
<glyph unicode="&#xb6;" horiz-adv-x="1093" d="M168 913q0 106 50 206t136 159q35 25 74 41t87 27.5t107.5 15.5t137.5 4h500l-17 -66q-57 -2 -92 -8t-57.5 -21.5t-34.5 -42t-23 -69.5l-362 -1452h-150l361 1442q18 76 18 94q0 47 -74 47q-29 0 -47 -5t-31.5 -20.5t-23.5 -42t-20 -69.5l-361 -1446h-149l231 928 q-260 37 -260 278z" />
<glyph unicode="&#xb7;" horiz-adv-x="319" d="M51 670q0 39 16.5 73.5t44 62.5t62.5 44t74 16q59 0 97 -38t38 -97q0 -39 -15.5 -74.5t-42 -62.5t-60.5 -42t-72 -15q-61 0 -101.5 37.5t-40.5 95.5z" />
<glyph unicode="&#xbb;" horiz-adv-x="862" d="M0 0l274 477l-32 490h59l152 -490l-383 -477h-70zM317 0l269 477l-27 490h55l156 -490l-387 -477h-66z" />
<glyph unicode="&#xf7;" horiz-adv-x="1095" d="M158 616v146h893v-146h-893zM477 375q0 53 37 90t90 37t90 -37t37 -90t-37 -90t-90 -37t-90 37t-37 90zM477 1004q0 53 37 89.5t90 36.5t90 -36.5t37 -89.5t-37 -90t-90 -37t-90 36.5t-37 90.5z" />
<glyph unicode="&#x192;" horiz-adv-x="1095" d="M-74 -129q0 53 31 90t76 37q35 0 58.5 -22.5t23.5 -57.5q0 -25 -17 -51l-13 -19.5t-5 -23.5q0 -20 18.5 -34.5t46.5 -14.5q31 0 51.5 9t39 37.5t39 81t49.5 140.5l286 872h-143l22 72q59 2 87 6t47 19q8 8 16 17t16.5 23.5t18.5 38t24 58.5q20 55 41 95t42.5 68.5t46 50 t55.5 38.5q84 47 190 47q100 0 157.5 -40t57.5 -108q0 -53 -29.5 -86.5t-74.5 -33.5q-35 0 -56.5 19.5t-21.5 49.5q0 16 10 37q8 16 14.5 28.5t6.5 28.5q0 47 -64 48q-49 0 -77.5 -36t-61.5 -136l-74 -224h211l-22 -75h-215l-232 -691q-33 -98 -59.5 -167.5t-50 -118.5 t-48 -82t-51.5 -58q-43 -39 -107.5 -60.5t-138.5 -21.5q-104 0 -162.5 40t-58.5 110z" />
<glyph unicode="&#x401;" horiz-adv-x="1128" d="M-55 0l16 66q55 2 90 8t55.5 21.5t33 42t22.5 69.5l237 952q12 51 13 76q0 35 -29 47t-115 16l17 68h915l-37 -340h-57v33q0 70 -9.5 116t-35 71.5t-68.5 35.5t-110 10h-219l-136 -540h424l-20 -86h-426l-121 -494q-6 -25 -6 -41q0 -57 113 -57h118q102 0 165 32.5 t128 118.5q14 20 25.5 34.5t20.5 30t18.5 32t21.5 38.5h55l-145 -360h-954zM477 1628q0 33 13.5 63.5t37 53t53 37t60.5 14.5q51 0 84 -32t33 -81q0 -35 -13.5 -64.5t-35 -53t-51 -36.5t-62.5 -13q-51 0 -85 32.5t-34 79.5zM874 1628q0 33 13.5 63.5t37 53t53.5 37t62 14.5 q51 0 84 -32t33 -81q0 -35 -13.5 -64.5t-36 -53t-51 -36.5t-61.5 -13q-53 0 -87 31.5t-34 80.5z" />
<glyph unicode="&#x402;" horiz-adv-x="1400" d="M104 -6l17 65q55 2 89 8.5t54.5 20.5t32.5 41t22 72l273 1091h-33q-57 0 -102 -13t-84 -46t-76 -86t-76 -133h-61l147 352h922l-29 -352h-59v30q0 137 -46 192.5t-159 55.5h-115l-135 -540q29 16 69 35.5t87 37t98 28.5t100 11q57 0 107.5 -11t89.5 -39t61.5 -74.5 t22.5 -116.5q0 -31 -4 -67t-14 -77l-113 -448q-37 -145 -87 -227.5t-132 -129.5q-59 -35 -125 -49t-146 -14q-29 0 -44 1t-44 5l21 80q23 -4 35 -5t24 -1q47 0 88 18.5t70 48.5q31 37 59.5 108t57.5 189l129 516q4 14 6 28.5t2 29.5q0 53 -27.5 94t-89.5 41q-106 0 -188 -34 t-135 -66l-115 -463q-6 -23 -8 -43.5t-2 -36.5q0 -31 29.5 -44.5t111.5 -17.5l-16 -65q-47 4 -82 7t-66 4t-60.5 2t-68.5 1t-69.5 -1t-61.5 -2t-66.5 -4t-85.5 -7z" />
<glyph unicode="&#x403;" d="M-57 -6l16 65q55 2 90 8.5t55.5 20.5t33 41t22.5 72l239 958q12 49 13 76q0 33 -30 46t-114 17l17 68h909l-37 -340h-57q0 16 1 26.5t1 18.5q0 66 -10.5 109t-36 67.5t-68.5 34.5t-110 10h-213l-273 -1091q-12 -47 -12 -72q0 -37 29.5 -51.5t115.5 -18.5l-16 -65 q-47 4 -81 7t-64.5 4t-62.5 2t-71 1q-41 0 -71.5 -1t-62.5 -2t-67.5 -4t-84.5 -7zM567 1483l232 276h329l-462 -276h-99z" />
<glyph unicode="&#x404;" horiz-adv-x="1198" d="M115 459q0 104 20.5 207.5t59 201t93 184.5t122.5 154q190 190 454 191q41 0 74 -3t64.5 -11.5t66.5 -22.5t82 -37q41 -20 66 -20q16 0 31.5 5t43.5 21l-80 -364h-59v24q0 328 -266 328q-137 0 -249 -98.5t-189 -290.5q-39 -88 -60 -180h483l-14 -72h-485 q-14 -61 -20.5 -121.5t-6.5 -118.5q0 -164 76 -252t213 -88q152 0 261.5 92.5t162.5 266.5h74q-57 -233 -202 -359.5t-353 -126.5q-221 0 -342 127t-121 363z" />
<glyph unicode="&#x405;" horiz-adv-x="1064" d="M29 164l71 315h62q-6 -39 -8 -59.5t-2 -48.5q0 -147 73.5 -230.5t208.5 -83.5q68 0 126 24.5t102.5 65.5t70 97.5t25.5 120.5q0 33 -8.5 58.5t-29 51t-54 51t-84.5 58.5q-78 49 -125 79.5t-78 53t-49.5 40t-38.5 38.5q-78 82 -78 186q0 86 38 159.5t103.5 129t153.5 87.5 t190 32q70 0 129.5 -12.5t126.5 -43.5q47 -23 74 -22q16 0 31.5 5t42.5 21l-88 -370h-60q4 29 6.5 45t2.5 39q0 127 -63.5 196.5t-180.5 69.5q-59 0 -110.5 -19.5t-90.5 -52.5t-60.5 -77t-21.5 -95q0 -59 40 -107t138 -112l115 -74q51 -33 96 -64.5t79 -70.5t54.5 -87 t20.5 -114q0 -96 -42 -181t-113.5 -149.5t-168 -101.5t-202.5 -37q-72 0 -128.5 12.5t-105.5 37t-95 59.5t-95 80z" />
<glyph unicode="&#x406;" horiz-adv-x="681" d="M-57 -6l16 65q55 2 89 8.5t55.5 21.5t34 42t22.5 70l241 964q12 51 13 76q0 35 -31 48.5t-113 17.5l17 65q49 -4 85 -7t66.5 -5t60 -3t64.5 -1t64.5 1t61.5 3t69 5t86 7l-15 -65q-53 -2 -86.5 -8.5t-55 -21.5t-34 -42t-22.5 -70l-242 -964q-6 -23 -8 -43.5t-2 -34.5 q0 -35 28.5 -47.5t110.5 -16.5l-16 -65q-49 4 -84 7t-65.5 4t-60.5 2t-65 1q-37 0 -66.5 -1t-61 -2t-68.5 -4t-88 -7z" />
<glyph unicode="&#x407;" horiz-adv-x="679" d="M-57 -6l16 65q55 2 89 8.5t55.5 21.5t34 42t22.5 70l241 964q12 51 13 76q0 35 -31 48.5t-113 17.5l17 65q49 -4 85 -7t66.5 -5t60 -3t64.5 -1t64.5 1t61.5 3t69 5t86 7l-17 -65q-53 -2 -85.5 -8.5t-54 -21.5t-34 -42t-22.5 -70l-242 -964q-6 -23 -8 -43.5t-2 -34.5 q0 -35 28.5 -47.5t110.5 -16.5l-16 -65q-49 4 -84 7t-65.5 4t-60.5 2t-65 1q-37 0 -66.5 -1t-61 -2t-68.5 -4t-88 -7zM319 1626q0 31 13.5 60.5t35 52t50 36t59.5 13.5q47 0 79 -32t32 -79q0 -66 -46 -111.5t-108 -45.5q-49 0 -82 29.5t-33 76.5zM666 1626q0 31 13 60.5 t34.5 52t50.5 36t59 13.5q47 0 80 -31t33 -78q0 -33 -12.5 -62.5t-34 -51t-50 -33.5t-59.5 -12q-49 0 -81.5 29.5t-32.5 76.5z" />
<glyph unicode="&#x408;" horiz-adv-x="675" d="M-166 -143l21 80q23 -4 35 -5.5t24 -1.5q47 0 88 18.5t70 49.5q31 37 58.5 107.5t55.5 189.5l220 870q6 27 10 45.5t4 32.5q0 33 -32 46.5t-114 17.5l17 65q49 -4 85 -7t66.5 -5t59 -3t63.5 -1q33 0 62.5 1t60.5 3t69 5t91 7l-17 -65q-53 -2 -86.5 -8.5t-54 -21.5 t-33 -42t-22.5 -70l-223 -895q-35 -145 -86.5 -227t-132.5 -129q-59 -35 -125 -49.5t-146 -14.5q-29 0 -44 1.5t-44 5.5z" />
<glyph unicode="&#x409;" horiz-adv-x="1814" d="M-135 90q0 47 31.5 83t83.5 36q31 0 50 -8t31.5 -19.5t20.5 -19.5t20 -8q23 0 46.5 14t52 49t62.5 93.5t75 146.5q33 70 72 163t76.5 190t68.5 189.5t49 159.5q6 23 10 40.5t4 31.5q0 41 -33.5 53t-115.5 16l16 66h1022l-14 -66q-55 -2 -90 -7t-56.5 -19t-34 -40 t-22.5 -69l-96 -393h168q123 0 191.5 -15.5t119.5 -54.5q45 -35 70.5 -93t25.5 -124q0 -131 -64.5 -244.5t-172.5 -170.5q-70 -35 -148.5 -52.5t-179.5 -17.5h-594l17 66q53 2 87 8t54 20.5t31.5 41t23.5 71.5l275 1085h-213q-51 0 -83 -3t-53.5 -23.5t-39 -62.5t-41.5 -118 q-29 -92 -68 -199.5t-81 -212t-84 -198.5t-77 -162q-47 -92 -89 -154.5t-83 -102.5t-82 -57t-86 -17q-68 0 -110.5 30.5t-42.5 77.5zM1038 131q0 -35 34 -47t81 -12q123 0 198.5 45t127.5 143q31 59 47 126t16 126q0 100 -55 143t-187 43h-124l-123 -491q-14 -55 -15 -76z " />
<glyph unicode="&#x40a;" horiz-adv-x="1878" d="M-57 -6l16 65q55 2 90 8.5t55.5 20.5t33 41t22.5 72l241 964q6 29 9.5 45.5t3.5 30.5q0 35 -30 48.5t-114 17.5l17 65q45 -4 79.5 -7t64.5 -5t59.5 -3t66.5 -1t66.5 1t61.5 3t70 5t89 7l-17 -65q-53 -2 -86.5 -8.5t-54 -20.5t-33 -41t-22.5 -72l-99 -395h498l98 395 q12 51 13 76q0 35 -31 48.5t-111 17.5l15 65q49 -4 82.5 -7t62.5 -5t56.5 -3t64.5 -1t66.5 1t61.5 3t70 5t89 7l-17 -65q-53 -2 -86.5 -8.5t-54 -20.5t-33 -41t-22.5 -72l-97 -393h168q123 0 192 -15.5t120 -54.5q45 -35 70.5 -93t25.5 -124q0 -131 -64.5 -244.5 t-173.5 -170.5q-70 -35 -148.5 -52.5t-178.5 -17.5h-594l16 66q53 2 87 8t54.5 20.5t31.5 41t24 71.5l123 491h-494l-125 -497q-14 -55 -14 -76q0 -35 28.5 -48.5t110.5 -17.5l-16 -65q-49 4 -85 7t-67 4t-61.5 2t-67.5 1t-66.5 -1t-60.5 -2t-66.5 -4t-82.5 -7zM1102 131 q0 -35 33.5 -47t81.5 -12q123 0 198.5 45t126.5 143q31 59 47.5 126t16.5 126q0 100 -55.5 143t-186.5 43h-125l-123 -491q-14 -55 -14 -76z" />
<glyph unicode="&#x40b;" horiz-adv-x="1458" d="M104 -6l17 65q55 2 89 8.5t54.5 20.5t32.5 41t22 72l273 1091h-33q-57 0 -102 -13t-84 -46t-76 -86t-76 -133h-61l147 352h922l-29 -352h-59v30q0 137 -46 192.5t-159 55.5h-115l-135 -540q29 16 69 35.5t87 37t98 28.5t100 11q57 0 107.5 -11t89.5 -39t61.5 -75 t22.5 -116q0 -31 -4 -67t-14 -77l-70 -278q-6 -29 -9 -45.5t-3 -30.5q0 -35 29.5 -48.5t113.5 -17.5l-16 -65q-47 4 -81 7t-63.5 5t-59.5 3t-67 1t-66.5 -1t-61 -3t-69.5 -5t-89 -7l16 65q53 2 87 8.5t54.5 20.5t32.5 41t23 72l92 370q4 14 6 28.5t2 29.5q0 53 -27.5 94 t-89.5 41q-106 0 -188 -34t-135 -66l-115 -463q-6 -23 -8 -43.5t-2 -36.5q0 -31 29.5 -44.5t111.5 -17.5l-16 -65q-47 4 -82 7t-66 4t-60.5 2t-68.5 1t-69.5 -1t-61.5 -2t-66.5 -4t-85.5 -7z" />
<glyph unicode="&#x40c;" horiz-adv-x="1308" d="M-57 -6l16 65q55 2 90 8.5t55.5 21.5t33 42t22.5 70l241 964q4 23 8.5 43.5t4.5 32.5q0 33 -33 47.5t-111 18.5l17 65q49 -4 86 -7t68.5 -5t62.5 -3t67 -1q37 0 67 1t59.5 3t64.5 5t82 7l-17 -65q-53 -2 -85.5 -8.5t-54 -21.5t-34 -42t-22.5 -70l-119 -475l555 496 q33 29 44 45t11 33q0 23 -22.5 31t-83.5 12l14 65q39 -4 66.5 -5t50 -2t45 -1h49.5q51 0 93 1t120 7l-16 -65q-45 -4 -79 -12.5t-70 -28t-81 -55t-112 -93.5l-326 -287l213 -577q41 -111 80 -149.5t104 -38.5q25 0 42.5 3t50.5 13l-19 -66q-49 -18 -94 -27t-94 -9 q-133 0 -201 79q-29 33 -53.5 82t-53.5 127l-151 420l-105 -92l-98 -395q-14 -55 -14 -76q0 -35 25.5 -47t103.5 -19l-17 -65q-41 4 -69.5 7t-56 4t-56 2t-67.5 1t-71 -1t-64.5 -2t-71.5 -4t-90 -7zM711 1483l231 276h330l-463 -276h-98z" />
<glyph unicode="&#x40e;" horiz-adv-x="1173" d="M66 106q0 41 25.5 69t66.5 28q33 0 54 -13.5t36.5 -29t27 -27.5t27.5 -12q35 0 87 30.5t106 112.5l69 105l-221 780q-12 43 -24.5 71.5t-31 46t-45 27t-67.5 13.5l17 65q43 -4 75.5 -7t62 -5t61.5 -3t75 -1q41 0 69.5 1t55 3t57.5 5t78 7l-16 -65q-41 -4 -65.5 -8.5 t-40 -11.5t-21.5 -18.5t-11 -27.5q-4 -18 -2 -42.5t7 -41.5l147 -551l367 545q14 23 28.5 46.5t20.5 45.5q8 33 -16.5 46.5t-102.5 17.5l16 65q63 -6 104.5 -8t92.5 -2h46.5t43 2t48 3t61.5 5l-17 -65q-41 -4 -72.5 -13.5t-56 -25t-46 -38t-42.5 -54.5l-567 -840 q-47 -68 -95.5 -131.5t-99.5 -112.5t-106.5 -78.5t-116.5 -29.5q-27 0 -53.5 6t-48 20.5t-34.5 38t-13 57.5zM625 1694v22t4 33h76q20 -84 59 -120t110 -36q66 0 120.5 35t117.5 121h78q-49 -143 -140.5 -222t-207.5 -79q-102 0 -159.5 64.5t-57.5 181.5z" />
<glyph unicode="&#x40f;" horiz-adv-x="1406" d="M-57 0l16 66q55 2 90 8t55.5 20.5t31.5 41t24 71.5l241 958q8 29 10.5 45.5t2.5 30.5q0 35 -30 48.5t-114 17.5l17 65q45 -4 79.5 -7t64.5 -5t59.5 -3t66.5 -1t66.5 1t61.5 3t70 5t89 7l-17 -65q-53 -2 -86.5 -8.5t-54 -20.5t-33 -41t-22.5 -72l-236 -950q-8 -29 -12 -46 t-4 -30q0 -35 35 -50t116 -15h140q59 0 96 5t59.5 20.5t35.5 43t26 72.5l241 950q12 51 13 76q0 35 -31 48.5t-111 17.5l15 65q49 -4 85 -7t66.5 -5t60 -3t66.5 -1t68 1t61.5 3t66.5 5t83 7l-15 -65q-55 -2 -88.5 -8.5t-55 -21.5t-34 -42t-22.5 -70l-240 -958 q-6 -23 -10 -42.5t-4 -35.5q0 -35 29.5 -47t115.5 -16l-16 -66h-377q-61 0 -103 -16.5t-75 -53t-62.5 -96t-66.5 -145.5h-66q2 37 3 67.5t1 59.5q0 100 -31.5 142t-127.5 42h-383z" />
<glyph unicode="&#x410;" horiz-adv-x="1310" d="M-96 -6l16 65q49 4 81 11.5t59.5 28t55 57.5t68.5 102l738 1165h22l115 -1216q4 -43 12 -70.5t26.5 -43t49.5 -24t78 -10.5l-17 -65q-45 4 -77.5 7t-63.5 4t-62.5 2t-72.5 1t-73 -1t-62.5 -2t-65.5 -4t-80 -7l15 65q49 2 79.5 7.5t48 15.5t23.5 26.5t6 41.5v15t-2 28 l-12 188h-459l-106 -172q-41 -66 -41 -98q0 -29 22.5 -38.5t98.5 -13.5l-17 -65q-37 2 -63.5 4t-48 4t-42 2h-44.5h-45.5t-43 -2t-50 -4t-66.5 -4zM397 453h406l-35 598z" />
<glyph unicode="&#x411;" horiz-adv-x="1187" d="M-55 0l16 66q55 2 90 8t55.5 20.5t33 41t22.5 71.5l237 952q8 29 10.5 45.5t2.5 30.5q0 35 -30 48t-114 17l17 66h895l-37 -340h-58v33q0 70 -9 116t-34.5 71.5t-68.5 35.5t-111 10h-198l-132 -520h166q123 0 191.5 -15.5t120.5 -54.5q45 -35 70.5 -93t25.5 -124 q0 -131 -64.5 -244.5t-173.5 -170.5q-70 -35 -148.5 -52.5t-178.5 -17.5h-596zM379 131q0 -35 31.5 -47t78.5 -12q123 0 199 45t127 143q31 59 47.5 126t16.5 126q0 100 -55.5 143t-186.5 43h-121l-123 -491q-14 -55 -14 -76z" />
<glyph unicode="&#x412;" horiz-adv-x="1187" d="M-55 0l16 66q55 2 89 8t55.5 21.5t34 42t22.5 69.5l237 952q6 23 9.5 43.5t3.5 30.5q0 35 -30 48t-114 17l17 68h516q201 0 293 -62.5t92 -197.5q0 -129 -86 -229.5t-236 -143.5q121 -29 176.5 -87t55.5 -163q0 -70 -21.5 -136t-59.5 -123.5t-91.5 -101.5t-114.5 -69 q-133 -53 -334 -53h-530zM377 121q0 -25 18.5 -36t65.5 -11h63q98 0 165 44t114 136q31 61 46 125t15 123q0 96 -52 136t-177 40h-125l-121 -483q-12 -55 -12 -74zM528 750h111q104 0 166.5 36.5t105.5 122.5q27 51 41.5 109.5t14.5 107.5q0 94 -48.5 130t-175.5 36h-79z " />
<glyph unicode="&#x413;" d="M-57 -6l16 65q55 2 90 8.5t55.5 20.5t33 41t22.5 72l239 958q12 49 13 76q0 33 -30 46t-114 17l17 68h909l-37 -340h-57q0 16 1 26.5t1 18.5q0 66 -10.5 109t-36 67.5t-68.5 34.5t-110 10h-213l-273 -1091q-12 -47 -12 -72q0 -37 29.5 -51.5t115.5 -18.5l-16 -65 q-47 4 -81 7t-64.5 4t-62.5 2t-71 1q-41 0 -71.5 -1t-62.5 -2t-67.5 -4t-84.5 -7z" />
<glyph unicode="&#x414;" horiz-adv-x="1284" d="M-205 -311l101 377q68 2 122 34.5t98 85t80.5 121t69.5 144.5q33 78 70 173t69.5 191t60.5 186.5t44 157.5q10 43 10 69.5t-15.5 42t-49 21.5t-88.5 8l14 66h1065l-14 -66q-55 -2 -89 -8t-55.5 -21.5t-34 -42t-22.5 -69.5l-238 -952q-12 -47 -12 -78q0 -35 35 -47 t121 -16l-37 -377h-58q0 74 -8 131t-35.5 97t-80 61.5t-138.5 21.5h-561q-76 0 -130 -25.5t-96 -68.5t-76 -99.5t-64 -117.5h-58zM143 74h406q57 0 95 5t60.5 20.5t36 43t25.5 72.5l272 1077h-207q-66 0 -105.5 -3t-63 -17.5t-37 -45t-27.5 -83.5q-53 -205 -115.5 -381 t-142.5 -356q-47 -111 -97 -200t-100 -132z" />
<glyph unicode="&#x415;" horiz-adv-x="1128" d="M-55 0l16 66q55 2 90 8t55.5 21.5t33 42t22.5 69.5l237 952q12 51 13 76q0 35 -29 47t-115 16l17 68h915l-37 -340h-57v33q0 70 -9.5 116t-35 71.5t-68.5 35.5t-110 10h-219l-136 -540h424l-20 -86h-426l-121 -494q-6 -25 -6 -41q0 -57 113 -57h118q102 0 165 32.5 t128 118.5q14 20 25.5 34.5t20.5 30t18.5 32t21.5 38.5h55l-145 -360h-954z" />
<glyph unicode="&#x416;" horiz-adv-x="1912" d="M-158 16l15 66q27 -10 43 -13t41 -3q33 0 59.5 9t55 31.5t61.5 60.5t80 95l487 606l-160 250q-37 57 -65.5 93t-56 55.5t-59.5 28t-75 12.5l17 65q37 -4 64.5 -5t51 -2t45 -1h48.5h49t45.5 1t51.5 2t69 5l-19 -65q-63 -4 -91 -12.5t-38 -30.5q-8 -16 -5 -33t22 -45 l309 -496l119 475q10 43 11 70t-12.5 42t-44 21.5t-81.5 8.5l16 65q45 -4 79 -7t64.5 -5t60 -3t66.5 -1t68 1t63.5 3t68.5 5t83 7l-16 -65q-53 -2 -86 -8.5t-54.5 -21.5t-34 -42t-22.5 -70l-117 -473l553 494q33 29 44 45t11 33q0 23 -22.5 31t-83.5 12l14 65q39 -4 67 -5 t50.5 -2t45 -1h48.5q51 0 93 1t120 7l-16 -65q-45 -4 -79 -12.5t-69.5 -28t-81 -55t-112.5 -93.5l-326 -287l213 -577q41 -111 80 -149.5t105 -38.5q25 0 42 3t50 13l-19 -66q-49 -18 -94 -27t-94 -9q-133 0 -201 79q-29 33 -53.5 82t-52.5 127l-152 420l-104 -92l-99 -395 q-14 -55 -14 -76q0 -35 25.5 -47t103.5 -19l-16 -65q-41 4 -72 7t-60.5 4t-60.5 2t-70 1t-69.5 -1t-60 -2t-62.5 -4t-76 -7l15 65q80 6 112.5 18.5t48.5 47.5q10 20 25 76l100 401l-59 92l-350 -438q-43 -55 -89.5 -104.5t-99.5 -88t-115.5 -61t-138.5 -22.5q-49 0 -89 9 t-81 27z" />
<glyph unicode="&#x417;" horiz-adv-x="1099" d="M29 291q0 59 14 119h76q-6 -23 -8 -45.5t-2 -42.5q0 -119 82.5 -174.5t207.5 -55.5q88 0 153.5 29t110 80t67 121.5t22.5 152.5q0 115 -79 159t-202 44h-53l16 72h94q72 0 133.5 33.5t106.5 87t70.5 120t25.5 133.5q0 78 -41 134.5t-133 56.5q-123 0 -224 -80t-169 -242 h-61l77 353q18 -14 31.5 -26.5t30 -18t40 1t60.5 26.5q63 35 128 48.5t136 13.5q82 0 149.5 -21.5t114 -58.5t72 -88.5t25.5 -110.5q0 -74 -31 -136.5t-82 -111.5t-116.5 -81.5t-135.5 -47.5q129 -27 191.5 -96.5t62.5 -171.5q0 -119 -52 -210t-136 -153.5t-190.5 -95.5 t-215.5 -33q-168 0 -267 81t-99 235z" />
<glyph unicode="&#x418;" horiz-adv-x="1427" d="M-57 -6l16 65q55 2 90 8.5t55.5 20.5t33 41t22.5 72l241 964q6 29 9.5 45.5t3.5 30.5q0 35 -30 48.5t-114 17.5l17 65q45 -4 79.5 -7t64.5 -5t59.5 -3t66.5 -1t66.5 1t61.5 3t70 5t89 7l-17 -65q-53 -2 -86.5 -8.5t-54 -20.5t-33 -41t-22.5 -72l-203 -813l721 817 q12 49 12 72q0 35 -30.5 48.5t-110.5 17.5l14 65q49 -4 85 -7t67 -5t60.5 -3t66.5 -1t67.5 1t61.5 3t66.5 5t82.5 7l-14 -65q-55 -2 -89 -8.5t-55.5 -21.5t-34 -42t-22.5 -70l-241 -964q-12 -47 -13 -78q0 -35 29 -47.5t115 -16.5l-17 -65q-47 4 -80.5 7t-63.5 4t-60.5 2 t-67.5 1t-67.5 -1t-62.5 -2t-69 -4t-86 -7l17 65q53 2 86.5 8.5t54 20.5t32 41t23.5 72l207 817l-721 -817l-8 -33q-4 -12 -5 -24.5t-1 -18.5q0 -35 28.5 -48.5t110.5 -17.5l-16 -65q-49 4 -85 7t-67 4t-61.5 2t-67.5 1t-66.5 -1t-60.5 -2t-66.5 -4t-82.5 -7z" />
<glyph unicode="&#x419;" horiz-adv-x="1427" d="M-57 -6l16 65q55 2 90 8.5t55.5 20.5t33 41t22.5 72l241 964q6 29 9.5 45.5t3.5 30.5q0 35 -30 48.5t-114 17.5l17 65q45 -4 79.5 -7t64.5 -5t59.5 -3t66.5 -1t66.5 1t61.5 3t70 5t89 7l-17 -65q-53 -2 -86.5 -8.5t-54 -20.5t-33 -41t-22.5 -72l-203 -813l721 817 q12 49 12 72q0 35 -30.5 48.5t-110.5 17.5l14 65q49 -4 85 -7t67 -5t60.5 -3t66.5 -1t67.5 1t61.5 3t66.5 5t82.5 7l-14 -65q-55 -2 -89 -8.5t-55.5 -21.5t-34 -42t-22.5 -70l-241 -964q-12 -47 -13 -78q0 -35 29 -47.5t115 -16.5l-17 -65q-47 4 -80.5 7t-63.5 4t-60.5 2 t-67.5 1t-67.5 -1t-62.5 -2t-69 -4t-86 -7l17 65q53 2 86.5 8.5t54 20.5t32 41t23.5 72l207 817l-721 -817l-8 -33q-4 -12 -5 -24.5t-1 -18.5q0 -35 28.5 -48.5t110.5 -17.5l-16 -65q-49 4 -85 7t-67 4t-61.5 2t-67.5 1t-66.5 -1t-60.5 -2t-66.5 -4t-82.5 -7zM707 1694v22 t4 33h75q20 -84 59.5 -120t110.5 -36q66 0 120 35t118 121h78q-49 -143 -140.5 -222t-207.5 -79q-102 0 -159.5 64.5t-57.5 181.5z" />
<glyph unicode="&#x41a;" horiz-adv-x="1308" d="M-57 -6l16 65q55 2 90 8.5t55.5 21.5t33 42t22.5 70l241 964q4 23 8.5 43.5t4.5 32.5q0 33 -33 47.5t-111 18.5l17 65q49 -4 86 -7t68.5 -5t62.5 -3t67 -1q37 0 67 1t59.5 3t64.5 5t82 7l-17 -65q-53 -2 -85.5 -8.5t-54 -21.5t-34 -42t-22.5 -70l-119 -475l555 496 q33 29 44 45t11 33q0 23 -22.5 31t-83.5 12l14 65q39 -4 66.5 -5t50 -2t45 -1h49.5q51 0 93 1t120 7l-16 -65q-45 -4 -79 -12.5t-70 -28t-81 -55t-112 -93.5l-326 -287l213 -577q41 -111 80 -149.5t104 -38.5q25 0 42.5 3t50.5 13l-19 -66q-49 -18 -94 -27t-94 -9 q-133 0 -201 79q-29 33 -53.5 82t-53.5 127l-151 420l-105 -92l-98 -395q-14 -55 -14 -76q0 -35 25.5 -47t103.5 -19l-17 -65q-41 4 -69.5 7t-56 4t-56 2t-67.5 1t-71 -1t-64.5 -2t-71.5 -4t-90 -7z" />
<glyph unicode="&#x41b;" horiz-adv-x="1339" d="M-135 90q0 47 31.5 83t83.5 36q31 0 50 -8t31.5 -19.5t20.5 -19.5t20 -8q23 0 46.5 14t52 49t62.5 93.5t75 146.5q33 70 72 163t76.5 190t68.5 189.5t49 159.5q6 23 10 40.5t4 31.5q0 41 -33.5 53t-115.5 16l16 66h1022l-14 -66q-55 -2 -89 -8t-55.5 -21.5t-33.5 -42 t-23 -69.5l-241 -958q-12 -47 -13 -78q0 -35 29 -47.5t115 -16.5l-17 -65q-47 4 -80.5 7t-63.5 4t-60.5 2t-67.5 1t-67.5 -1t-62.5 -2t-69 -4t-86 -7l17 65q53 2 86.5 8.5t54 20.5t32 41t23.5 72l277 1091h-213q-51 0 -83 -3t-53.5 -23.5t-39 -62.5t-41.5 -118 q-29 -92 -68 -199.5t-81 -212t-84 -198.5t-77 -162q-47 -92 -89 -154.5t-83 -102.5t-82 -57t-86 -17q-68 0 -110.5 30.5t-42.5 77.5z" />
<glyph unicode="&#x41c;" horiz-adv-x="1705" d="M-59 -6l16 65q53 6 85 20.5t54 39.5q14 14 25.5 34.5t25 57.5t32 95.5t44.5 152.5l205 706q10 41 10 74q0 35 -29.5 48t-113.5 18l16 67q31 -4 54.5 -5t44 -3t42 -2h48.5h56.5t51 2t53 3t64.5 5l115 -979l604 979q39 -4 68.5 -5t55 -3t50 -2h53.5h47.5t41 2t44 3t56.5 5 l-17 -65q-55 -4 -90 -10.5t-56.5 -21.5t-32.5 -41t-22 -69l-210 -917q-6 -29 -12.5 -56.5t-6.5 -56.5q0 -41 28.5 -56.5t108.5 -19.5l-16 -65q-49 4 -85 7t-66.5 4t-60.5 2t-65 1t-64.5 -1t-61 -2t-68.5 -4t-88 -7l16 65q55 2 89 8.5t55.5 20.5t34 41t22.5 70l262 1071 l-758 -1231h-30l-140 1231l-293 -1071q-6 -25 -10 -42.5t-4 -29.5q0 -37 28.5 -50.5t108.5 -17.5l-16 -65q-68 4 -105.5 6t-87.5 2h-43t-43.5 -1t-52 -3t-67.5 -4z" />
<glyph unicode="&#x41d;" horiz-adv-x="1406" d="M-57 -6l16 65q55 2 90 8.5t55.5 20.5t33 41t22.5 72l241 964q6 29 9.5 45.5t3.5 30.5q0 35 -30 48.5t-114 17.5l17 65q45 -4 79.5 -7t64.5 -5t59.5 -3t66.5 -1t66.5 1t61.5 3t70 5t89 7l-17 -65q-53 -2 -86.5 -8.5t-54 -20.5t-33 -41t-22.5 -72l-105 -417h498l104 417 q12 51 13 76q0 35 -31 48.5t-111 17.5l15 65q49 -4 85 -7t66.5 -5t60 -3t66.5 -1t68 1t61.5 3t66.5 5t83 7l-15 -65q-55 -2 -88.5 -8.5t-55 -21.5t-34 -42t-22.5 -70l-242 -964q-12 -47 -12 -78q0 -35 28.5 -47.5t114.5 -16.5l-16 -65q-47 4 -81 7t-63.5 4t-60.5 2t-68 1 t-67.5 -1t-62 -2t-68.5 -4t-86 -7l16 65q53 2 87 8.5t54.5 20.5t31.5 41t24 72l119 475h-494l-119 -475q-14 -55 -14 -76q0 -35 28.5 -48.5t110.5 -17.5l-16 -65q-49 4 -85 7t-67 4t-61.5 2t-67.5 1t-66.5 -1t-60.5 -2t-66.5 -4t-82.5 -7z" />
<glyph unicode="&#x41e;" horiz-adv-x="1302" d="M119 463q0 195 56 364.5t153.5 295.5t229.5 199t284 73q217 0 334.5 -127t117.5 -363q0 -197 -56 -366.5t-153.5 -296.5t-228.5 -200t-283 -73q-217 0 -335.5 128t-118.5 366zM350 360q0 -154 59.5 -240.5t168.5 -86.5q236 0 387 440q49 141 73.5 277.5t24.5 257.5 q0 152 -58.5 238.5t-160.5 86.5q-121 0 -214 -99t-169 -308q-53 -150 -82 -296.5t-29 -269.5z" />
<glyph unicode="&#x41f;" horiz-adv-x="1406" d="M-57 -6l16 65q55 2 90 8.5t55.5 20.5t31.5 41t24 72l241 958q8 29 10.5 45.5t2.5 30.5q0 35 -30 48t-114 17l17 66h1284l-15 -66q-55 -2 -88.5 -8t-55 -21.5t-34 -42t-22.5 -69.5l-242 -958q-12 -47 -12 -78q0 -35 28.5 -47.5t114.5 -16.5l-16 -65q-47 4 -81 7t-63.5 4 t-60.5 2t-68 1t-67.5 -1t-62 -2t-68.5 -4t-86 -7l16 65q53 2 87 8.5t54.5 20.5t31.5 41t24 72l276 1091h-497l-273 -1091q-14 -55 -14 -76q0 -35 28.5 -48.5t110.5 -17.5l-16 -65q-49 4 -85 7t-67 4t-61.5 2t-67.5 1t-66.5 -1t-60.5 -2t-66.5 -4t-82.5 -7z" />
<glyph unicode="&#x420;" horiz-adv-x="1144" d="M-57 -6l16 65q55 2 90 8.5t55.5 20.5t33 41t22.5 72l239 958q12 49 13 76q0 35 -30 47t-114 16l17 68h538q123 0 191.5 -15.5t120.5 -54.5q45 -35 70.5 -93t25.5 -124q0 -131 -64.5 -244.5t-173.5 -170.5q-70 -35 -148.5 -52.5t-178.5 -17.5h-177l-98 -393 q-6 -27 -9 -43.5t-3 -30.5q0 -35 29.5 -49.5t115.5 -18.5l-16 -65q-49 4 -85 7t-66.5 4t-60.5 2t-67 1t-66.5 -1t-62 -2t-69.5 -4t-88 -7zM506 666h108q123 0 199 45t127 143q31 59 47.5 126t16.5 126q0 100 -55.5 143t-186.5 43h-98z" />
<glyph unicode="&#x421;" horiz-adv-x="1198" d="M115 459q0 104 20.5 207.5t59 201t93 184.5t122.5 154q190 190 454 191q41 0 74 -3t64.5 -11.5t66.5 -22.5t82 -37q41 -20 66 -20q16 0 33.5 5t45.5 21l-84 -385h-59v45q0 328 -266 328q-137 0 -249 -98.5t-189 -290.5q-49 -119 -76 -247t-27 -245q0 -164 76 -252 t213 -88q156 0 267.5 98.5t162.5 284.5h74q-53 -244 -199.5 -377t-361.5 -133q-221 0 -342 127t-121 363z" />
<glyph unicode="&#x422;" horiz-adv-x="1085" d="M145 -6l17 65q55 2 89 8.5t54.5 20.5t32.5 41t22 72l273 1091h-74q-57 0 -102 -13t-84 -46t-76 -86t-76 -133h-61l147 352h922l-29 -352h-59v30q0 137 -46 192.5t-159 55.5h-74l-272 -1091q-6 -23 -8 -43.5t-2 -36.5q0 -31 29.5 -44.5t111.5 -17.5l-16 -65q-47 4 -82 7 t-66 4t-60.5 2t-68.5 1t-69.5 -1t-61.5 -2t-66.5 -4t-85.5 -7z" />
<glyph unicode="&#x423;" horiz-adv-x="1173" d="M66 106q0 41 25.5 69t66.5 28q33 0 54 -13.5t36.5 -29t27 -27.5t27.5 -12q35 0 87 30.5t106 112.5l69 105l-221 780q-12 43 -24.5 71.5t-31 46t-45 27t-67.5 13.5l17 65q43 -4 75.5 -7t62 -5t61.5 -3t75 -1q41 0 69.5 1t55 3t57.5 5t78 7l-16 -65q-41 -4 -65.5 -8.5 t-40 -11.5t-21.5 -18.5t-11 -27.5q-4 -18 -2 -42.5t7 -41.5l147 -551l367 545q14 23 28.5 46.5t20.5 45.5q8 33 -16.5 46.5t-102.5 17.5l16 65q63 -6 104.5 -8t92.5 -2h46.5t43 2t48 3t61.5 5l-17 -65q-41 -4 -72.5 -13.5t-56 -25t-46 -38t-42.5 -54.5l-567 -840 q-47 -68 -95.5 -131.5t-99.5 -112.5t-106.5 -78.5t-116.5 -29.5q-27 0 -53.5 6t-48 20.5t-34.5 38t-13 57.5z" />
<glyph unicode="&#x424;" horiz-adv-x="1429" d="M102 610q0 141 57.5 247t153 176.5t218 108.5t251.5 44q6 33 6 55q0 35 -30.5 48.5t-112.5 17.5l17 65q49 -4 83.5 -7t64.5 -5t58.5 -3t63.5 -1t64.5 1t61.5 3t68.5 5t85.5 7l-14 -65q-51 -2 -84 -7.5t-53.5 -18.5t-32.5 -36.5t-22 -60.5q211 -20 323.5 -128t112.5 -268 q0 -141 -58.5 -248.5t-153.5 -181t-219 -113.5t-253 -48q-6 -23 -8 -41.5t-2 -32.5q0 -35 28.5 -47.5t110.5 -16.5l-17 -65q-49 4 -83.5 7t-63.5 4t-57.5 2t-63.5 1q-37 0 -66.5 -1t-61.5 -2t-68.5 -4t-88.5 -7l17 65q55 2 89 8.5t55.5 21.5t33.5 42t23 70 q-104 10 -185.5 46t-135.5 89t-83 123.5t-29 150.5zM330 571q0 -113 53 -191.5t170 -107.5l211 842q-227 -41 -330.5 -182t-103.5 -361zM774 266q113 16 196 66.5t137 125t80.5 170t26.5 199.5q0 109 -53 179.5t-176 101.5z" />
<glyph unicode="&#x425;" horiz-adv-x="1216" d="M-119 -6l17 65q47 4 79.5 11.5t63.5 26t64.5 50t82.5 86.5l379 420l-137 518q-10 37 -22.5 61.5t-32 40t-49 23t-72.5 11.5l16 65q43 -4 76 -7t63.5 -5t63.5 -2h76h74.5t62.5 2t62.5 5t74.5 7l-16 -65q-82 -4 -117 -22.5t-35 -55.5q0 -10 2 -19.5t9 -31.5l90 -338 l278 313q61 68 62 107q0 41 -64 40h-17t-22 -2l-6 60q90 8 152.5 23.5t126.5 45.5q4 -23 5 -33t1 -20q0 -37 -19.5 -73.5t-47 -70.5t-59.5 -65.5t-56 -58.5l-314 -344l144 -531q14 -51 27.5 -83.5t33.5 -52t48 -28t71 -8.5h18l-16 -65q-47 4 -82 7t-65.5 4t-61.5 2t-70 1 t-70.5 -1t-63.5 -2t-68.5 -4t-85.5 -7l16 65q90 6 118.5 22.5t28.5 59.5q0 10 -4 27.5t-14 58.5l-90 344l-320 -354q-41 -45 -56 -69.5t-15 -41.5q0 -25 20.5 -34t85.5 -13l-16 -65q-35 2 -60.5 4t-48 3t-45 1h-49.5q-53 0 -93 -2t-112 -6z" />
<glyph unicode="&#x426;" horiz-adv-x="1406" d="M-57 0l16 66q55 2 90 8t55.5 20.5t31.5 41t24 71.5l241 958q8 29 10.5 45.5t2.5 30.5q0 35 -30 48.5t-114 17.5l17 65q45 -4 79.5 -7t64.5 -5t59.5 -3t66.5 -1t66.5 1t61.5 3t70 5t89 7l-17 -65q-53 -2 -86.5 -8.5t-54 -20.5t-33 -41t-22.5 -72l-236 -950q-8 -29 -12 -46 t-4 -30q0 -35 35 -50t116 -15h140q59 0 96 5t59.5 20.5t35.5 43t26 72.5l241 950q12 51 13 76q0 35 -31 48.5t-111 17.5l15 65q49 -4 85 -7t66.5 -5t60 -3t66.5 -1t68 1t61.5 3t66.5 5t83 7l-15 -65q-55 -2 -88.5 -8.5t-55 -21.5t-34 -42t-22.5 -70l-240 -958 q-6 -23 -10 -42.5t-4 -35.5q0 -35 36 -47t122 -16l-37 -377h-58q0 74 -8 131t-35.5 97t-80 61.5t-138.5 21.5h-960z" />
<glyph unicode="&#x427;" horiz-adv-x="1329" d="M223 1307l17 65q45 -4 79.5 -7t64.5 -5t59.5 -3t66.5 -1t66.5 1t61.5 3t69.5 5t89.5 7l-17 -65q-53 -2 -87 -8.5t-54.5 -20.5t-31.5 -41t-23 -72l-86 -340q-6 -29 -6 -57q0 -53 27.5 -94t88.5 -41q57 0 107.5 11t93.5 27.5t77 36t58 35.5l107 422q12 51 12 76 q0 35 -31 48.5t-110 17.5l14 65q49 -4 85 -7t66.5 -5t60.5 -3t66 -1q37 0 68 1t61.5 3t66.5 5t83 7l-14 -65q-55 -2 -89 -8.5t-55.5 -21.5t-34 -42t-22.5 -70l-242 -964q-12 -47 -12 -78q0 -35 28.5 -47.5t114.5 -16.5l-16 -65q-47 4 -81 7t-63.5 4t-60.5 2t-67 1 q-37 0 -68 -1t-62.5 -2t-68.5 -4t-86 -7l16 65q53 2 87 8.5t54.5 20.5t32 41t23.5 72l115 452q-27 -16 -67 -36.5t-89 -39t-103.5 -32t-107.5 -13.5q-57 0 -108.5 11.5t-90.5 39t-61.5 73.5t-22.5 118q0 63 21 144l61 247q6 29 9.5 45.5t3.5 30.5q0 35 -30 48.5t-114 17.5z " />
<glyph unicode="&#x428;" horiz-adv-x="2025" d="M-57 0l16 66q55 2 90 8t55.5 20.5t31.5 41t24 71.5l241 958q8 29 10.5 45.5t2.5 30.5q0 35 -30 48.5t-114 17.5l17 65q45 -4 79.5 -7t64.5 -5t59.5 -3t66.5 -1t66.5 1t61.5 3t70 5t89 7l-17 -65q-53 -2 -86.5 -8.5t-54 -20.5t-33 -41t-22.5 -72l-236 -950q-8 -29 -12 -46 t-4 -30q0 -35 35 -50t116 -15h86q59 0 96.5 5t60 20.5t35.5 43t26 72.5l241 950q12 51 12 76q0 35 -30.5 48.5t-110.5 17.5l15 65q49 -4 82.5 -7t62.5 -5t57.5 -3t65.5 -1t66.5 1t61.5 3t69.5 5t89.5 7l-17 -65q-53 -2 -87 -8.5t-54.5 -20.5t-32.5 -41t-22 -72l-236 -950 q-8 -29 -12 -46t-4 -30q0 -35 34.5 -50t116.5 -15h86q59 0 96 5t59.5 20.5t36 43t25.5 72.5l242 950q12 51 12 76q0 35 -30.5 48.5t-110.5 17.5l14 65q49 -4 85 -7t67 -5t60.5 -3t66.5 -1t67.5 1t61.5 3t66.5 5t82.5 7l-14 -65q-55 -2 -89 -8.5t-55.5 -21.5t-33.5 -42 t-23 -70l-239 -958q-6 -23 -10.5 -42.5t-4.5 -35.5q0 -35 30 -47t116 -16l-17 -66h-1906z" />
<glyph unicode="&#x429;" horiz-adv-x="2025" d="M-57 0l16 66q55 2 90 8t55.5 20.5t31.5 41t24 71.5l241 958q8 29 10.5 45.5t2.5 30.5q0 35 -30 48.5t-114 17.5l17 65q45 -4 79.5 -7t64.5 -5t59.5 -3t66.5 -1t66.5 1t61.5 3t70 5t89 7l-17 -65q-53 -2 -86.5 -8.5t-54 -20.5t-33 -41t-22.5 -72l-236 -950q-8 -29 -12 -46 t-4 -30q0 -35 35 -50t116 -15h86q59 0 96.5 5t60 20.5t35.5 43t26 72.5l241 950q12 51 12 76q0 35 -30.5 48.5t-110.5 17.5l15 65q49 -4 82.5 -7t62.5 -5t57.5 -3t65.5 -1t66.5 1t61.5 3t69.5 5t89.5 7l-17 -65q-53 -2 -87 -8.5t-54.5 -20.5t-32.5 -41t-22 -72l-236 -950 q-8 -29 -12 -46t-4 -30q0 -35 34.5 -50t116.5 -15h86q59 0 96 5t59.5 20.5t36 43t25.5 72.5l242 950q12 51 12 76q0 35 -30.5 48.5t-110.5 17.5l14 65q49 -4 85 -7t67 -5t60.5 -3t66.5 -1t67.5 1t61.5 3t66.5 5t82.5 7l-14 -65q-55 -2 -89 -8.5t-55.5 -21.5t-33.5 -42 t-23 -70l-239 -958q-6 -23 -10.5 -42.5t-4.5 -35.5q0 -35 36 -47t122 -16l-37 -377h-57q0 74 -8.5 131t-36 97t-79.5 61.5t-138 21.5h-1579z" />
<glyph unicode="&#x42a;" horiz-adv-x="1351" d="M143 0l17 66q55 2 90 8t55.5 20.5t31.5 41t23 71.5l273 1085h-74q-57 0 -102 -13t-84 -46t-76 -86t-76 -133h-61l147 352h735l-16 -66q-53 -2 -87 -8t-54.5 -20.5t-32.5 -41t-23 -71.5l-96 -387h168q123 0 191.5 -15.5t119.5 -54.5q45 -35 71 -93t26 -124 q0 -131 -64.5 -244.5t-173.5 -170.5q-70 -35 -148.5 -52.5t-179.5 -17.5h-600zM578 131q0 -35 33.5 -47t80.5 -12q123 0 199 45t127 143q31 59 47 126t16 126q0 100 -55 143t-186 43h-125l-123 -491q-14 -55 -14 -76z" />
<glyph unicode="&#x42b;" horiz-adv-x="1744" d="M-47 0l16 66q55 2 90 8t55.5 20.5t33 41t22.5 71.5l240 958q8 29 10 45.5t2 30.5q0 35 -30 48.5t-113 17.5l16 65q45 -4 80 -7t64.5 -5t59 -3t66.5 -1t67 1t61.5 3t69.5 5t89 7l-16 -65q-53 -2 -87 -8.5t-54.5 -20.5t-33 -41t-22.5 -72l-96 -393h159q123 0 192 -15.5 t120 -54.5q45 -35 70.5 -93t25.5 -124q0 -131 -64.5 -244.5t-173.5 -170.5q-70 -35 -148.5 -52.5t-178.5 -17.5h-592zM387 131q0 -35 29.5 -47t77.5 -12q123 0 198.5 45t126.5 143q31 59 47.5 126t16.5 126q0 100 -55.5 143t-186.5 43h-117l-123 -491q-14 -55 -14 -76z M1010 -6l16 65q53 2 87 8.5t54.5 20.5t31.5 41t24 72l243 964q12 51 13 76q0 35 -31 48.5t-111 17.5l15 65q49 -4 85 -7t66.5 -5t60 -3t66.5 -1t68 1t61.5 3t66.5 5t83 7l-15 -65q-55 -2 -88.5 -8.5t-55 -21.5t-34 -42t-22.5 -70l-242 -964q-12 -47 -12 -78 q0 -35 28.5 -47.5t114.5 -16.5l-16 -65q-47 4 -81 7t-63.5 4t-60.5 2t-68 1t-67.5 -1t-62 -2t-68.5 -4t-86 -7z" />
<glyph unicode="&#x42c;" horiz-adv-x="1163" d="M-47 0l16 66q55 2 90 8t55.5 20.5t33 41t22.5 71.5l240 958q8 29 10 45.5t2 30.5q0 35 -30 48.5t-113 17.5l16 65q45 -4 80 -7t64.5 -5t59 -3t66.5 -1t67 1t61.5 3t69.5 5t89 7l-16 -65q-53 -2 -87 -8.5t-54.5 -20.5t-33 -41t-22.5 -72l-96 -393h168q123 0 191.5 -15.5 t119.5 -54.5q45 -35 70.5 -93t25.5 -124q0 -131 -64.5 -244.5t-172.5 -170.5q-70 -35 -149 -52.5t-179 -17.5h-600zM387 131q0 -35 34 -47t81 -12q123 0 198.5 45t126.5 143q31 59 47.5 126t16.5 126q0 100 -55.5 143t-186.5 43h-125l-123 -491q-14 -55 -14 -76z" />
<glyph unicode="&#x42d;" horiz-adv-x="1198" d="M61 344q0 47 7 96h71q-2 -14 -2 -26.5v-24.5q0 -139 77 -215t216 -76q180 0 302 145.5t188 432.5h-490l19 72h485q14 72 20.5 133t6.5 114q0 158 -61.5 239t-197.5 81q-86 0 -154.5 -31t-121.5 -80t-93 -112.5t-71 -128.5h-57l96 372l22.5 -22.5t41.5 -12.5 q23 0 61.5 10.5t97.5 37.5q109 47 238 47q201 0 314.5 -130.5t113.5 -359.5q0 -98 -25 -215q-37 -170 -107.5 -304t-165.5 -226t-211 -141.5t-243 -49.5q-182 0 -279.5 100.5t-97.5 274.5z" />
<glyph unicode="&#x42e;" horiz-adv-x="1884" d="M-57 -6l16 65q55 2 90 8.5t55.5 20.5t33 41t22.5 72l241 964q6 29 9.5 45.5t3.5 30.5q0 35 -30 48.5t-114 17.5l17 65q45 -4 79.5 -7t64.5 -5t59.5 -3t66.5 -1t66.5 1t61.5 3t70 5t89 7l-17 -65q-53 -2 -86.5 -8.5t-54 -20.5t-33 -41t-22.5 -72l-105 -417h207 q35 141 101.5 259.5t156.5 204.5t199.5 134.5t232.5 48.5q217 0 335 -127t118 -363q0 -197 -56.5 -366.5t-153.5 -296.5t-228 -200t-283 -73q-217 0 -336 128t-119 366q0 111 19 213h-209l-119 -475q-14 -55 -14 -76q0 -35 28.5 -48.5t110.5 -17.5l-16 -65q-49 4 -85 7 t-67 4t-61.5 2t-67.5 1t-66.5 -1t-60.5 -2t-66.5 -4t-82.5 -7zM932 360q0 -154 59.5 -240.5t167.5 -86.5q236 0 387 440q49 141 74 277.5t25 257.5q0 152 -58.5 238.5t-161.5 86.5q-121 0 -214 -99t-169 -308q-53 -150 -81.5 -296.5t-28.5 -269.5z" />
<glyph unicode="&#x42f;" horiz-adv-x="1277" d="M-162 16l17 66q27 -10 48 -13t36 -3q31 0 55 8t48 30.5t51.5 61.5t66.5 102l112 183q63 106 131 149t160 57q-53 10 -102 31t-87 53.5t-60.5 79.5t-22.5 113q0 61 19.5 119.5t55 109.5t83 90t102.5 64q31 14 63.5 23.5t72.5 15.5t89 8t117 2h549l-19 -68q-51 -2 -83.5 -6 t-55 -18t-36 -42t-25.5 -73l-240 -960q-12 -47 -12 -74q0 -39 31.5 -50.5t111.5 -15.5l-14 -65q-49 4 -85 7t-68 4t-62.5 2t-67.5 1t-66.5 -1l-59 -2t-64.5 -4t-84 -7l14 65q51 2 84 7.5t54.5 19.5t33.5 40t25 73l112 450h-57q-35 0 -65.5 -5t-60.5 -23.5t-61.5 -53.5 t-70.5 -96l-156 -244q-66 -104 -163 -175.5t-232 -71.5q-49 0 -85 9t-77 27zM520 891q0 -53 17.5 -86t47 -51.5t69.5 -25.5t87 -7h144l141 571h-102q-74 0 -127.5 -9t-94 -29.5t-71.5 -55.5t-56 -86q-27 -51 -41 -109.5t-14 -111.5z" />
<glyph unicode="&#x430;" horiz-adv-x="1097" d="M45 299q0 131 46 255t123 221t175 155.5t203 58.5q174 0 186 -170l43 150q37 0 62.5 1t49 3t49.5 6t62 10l-194 -684q-10 -35 -16.5 -59.5t-10.5 -41t-5 -28.5t-1 -24q0 -29 13.5 -47.5t35.5 -18.5q33 0 58.5 24.5t64.5 90.5l49 -25q-53 -104 -113.5 -150t-140.5 -46 q-158 0 -170 174q-59 -92 -121.5 -133t-148.5 -41q-137 0 -218 86t-81 233zM254 203q0 -78 30.5 -122t84.5 -44q158 0 264 299q20 59 38.5 121.5t33 120t21.5 105.5t7 83q0 78 -31.5 122t-89.5 44q-72 0 -133 -72t-127 -231q-45 -113 -71.5 -229.5t-26.5 -196.5z" />
<glyph unicode="&#x431;" horiz-adv-x="1003" d="M76 330q0 80 16 157q37 174 75 299t79 211t85 141.5t93 92.5q47 37 120.5 58.5t160.5 31.5l140 12t99 15q39 10 60 34h53q-6 -20 -17.5 -46.5t-25 -53.5t-27.5 -48.5t-29 -33.5q-33 -29 -69.5 -43t-76.5 -21.5t-82 -10.5t-87 -7q-115 -10 -183.5 -39.5t-112.5 -80 t-70.5 -125t-57.5 -173.5q66 125 168 196t246 71q145 0 231 -92.5t86 -258.5q0 -135 -42 -250.5t-114.5 -201.5t-171 -135t-210.5 -49q-160 0 -248 92t-88 258zM285 225q0 -188 133 -188q78 0 137 68.5t113 224.5q35 104 54 203.5t19 185.5q0 39 -5 73.5t-20.5 61.5t-41 42 t-68.5 15q-72 0 -131 -63.5t-106 -204.5q-84 -240 -84 -418z" />
<glyph unicode="&#x432;" horiz-adv-x="974" d="M59 313q0 135 49.5 257t130 215.5t186 148.5t218.5 55q125 0 200 -51.5t75 -151.5q0 -82 -72 -150.5t-189 -103.5q84 -12 138.5 -63t54.5 -150q0 -74 -32 -136t-89 -106t-136 -69.5t-173 -25.5q-186 0 -273.5 88t-87.5 243zM274 268q0 -59 13.5 -98t35 -62.5t48 -34 t55.5 -10.5q94 0 150.5 69.5t56.5 180.5q0 29 -7.5 55.5t-25.5 49t-51 38t-84 19.5q-41 -6 -82 -10t-84 -10q-8 -37 -16.5 -85t-8.5 -102zM317 522q82 4 157 28.5t132.5 64.5t91 92.5t33.5 113.5q0 55 -27.5 83t-72.5 28q-88 0 -173 -104.5t-141 -305.5z" />
<glyph unicode="&#x433;" horiz-adv-x="878" d="M66 211q0 61 33.5 117.5t81.5 104.5t102.5 86t97.5 67q31 20 67.5 46.5t67.5 57.5t51.5 64.5t20.5 68.5q0 41 -22.5 69t-82.5 28q-59 0 -125.5 -53.5t-111.5 -159.5h-88q53 139 148 211.5t226 72.5q117 0 194 -42t77 -134q0 -109 -78 -190.5t-221 -171.5 q-35 -23 -72 -47.5t-67.5 -55.5t-50 -67.5t-19.5 -79.5q0 -27 7 -52.5t23.5 -46t44 -33t68.5 -12.5q190 0 275 256h90q-51 -164 -146.5 -251t-250.5 -87q-74 0 -136.5 12.5t-107.5 40t-70.5 71.5t-25.5 110z" />
<glyph unicode="&#x434;" horiz-adv-x="1003" d="M57 334q0 135 44 253t117 204t168 135t198 49q104 0 151 -46t68 -124q16 63 30.5 138t14.5 147q0 47 -8.5 90t-32 76.5t-67.5 54t-115 20.5q-53 0 -120 -16.5t-108 -38.5l-18 39q53 35 126 55.5t132 20.5q61 0 125.5 -14.5t117 -54.5t86 -108.5t33.5 -179.5 q0 -76 -9 -166t-28.5 -185t-47 -189.5t-64.5 -176.5q-82 -182 -201 -258.5t-254 -76.5q-160 0 -249 92t-89 260zM266 229q0 -190 135 -190q78 0 135.5 68.5t110.5 224.5q35 104 57.5 204.5t22.5 186.5q0 39 -5 73.5t-20.5 61.5t-42 43.5t-69.5 16.5q-72 0 -131.5 -63.5 t-108.5 -205.5q-84 -242 -84 -420z" />
<glyph unicode="&#x435;" horiz-adv-x="901" d="M51 313q0 135 46 257t125 215.5t181.5 148.5t214.5 55q125 0 200 -59.5t75 -159.5q0 -76 -46 -141.5t-127 -113.5t-193.5 -77.5t-247.5 -34.5q-18 -72 -19 -135q0 -98 51 -155.5t142 -57.5q92 0 170.5 69t119.5 185h88q-63 -160 -177.5 -244.5t-266.5 -84.5 q-156 0 -246 89t-90 244zM295 471q86 0 161.5 25.5t131 70.5t87.5 106.5t32 131.5q0 55 -28 91t-73 36q-92 0 -175 -123t-136 -338z" />
<glyph unicode="&#x436;" horiz-adv-x="1556" d="M-170 18l14 54q14 -6 32 -11.5t34 -5.5q23 0 41 6.5t39.5 21.5t47 44t60.5 72l373 456l-82 138q-41 68 -93 93t-122 36l12 51q39 -4 69 -5t56.5 -3t51 -2h55.5h54.5t45 2t46 3t59.5 5l-13 -51q-55 -4 -83.5 -14.5t-41.5 -35.5q-16 -29 17 -90l174 -327l129 514 q43 2 100.5 6t112.5 14l-133 -526l329 319q61 57 62 90q0 25 -20.5 35.5t-73.5 14.5l12 51q33 -4 56.5 -5t45 -3t45 -2h54.5h55.5t51 2t57 3t71.5 5l-12 -51q-74 -10 -134.5 -36t-135.5 -93l-183 -166l154 -428q31 -84 58.5 -112t72.5 -28q18 0 36.5 4.5t35.5 8.5l-13 -54 q-45 -23 -84 -30.5t-79 -7.5q-90 0 -145.5 48t-96.5 169l-100 288l-146 -133l-88 -352h-207l90 362l-75 127l-228 -292q-49 -61 -91 -103.5t-85 -68t-91 -35.5t-108 -10q-41 0 -75.5 8t-69.5 30z" />
<glyph unicode="&#x437;" horiz-adv-x="892" d="M27 201q0 16 3 35.5t7 42.5h80l-8.5 -34t-4.5 -40q0 -68 47.5 -110t147.5 -42q117 0 184.5 79t67.5 198q0 74 -29.5 108.5t-120.5 34.5h-82l11 68h104q43 0 82 16t67.5 47t46 74t17.5 96q0 63 -31.5 107.5t-109.5 44.5t-152.5 -60.5t-122.5 -179.5h-61l61 289l33 -21 q20 -12 52 -11t51 11q39 18 93 27.5t89 9.5q147 0 224 -55.5t77 -157.5q0 -49 -18.5 -91t-50 -74.5t-72.5 -56.5t-84 -34q76 -23 113.5 -67.5t37.5 -137.5q0 -86 -42 -150.5t-107.5 -106.5t-148.5 -63.5t-165 -21.5q-137 0 -211.5 57.5t-74.5 168.5z" />
<glyph unicode="&#x438;" horiz-adv-x="1153" d="M119 195q0 51 20 131l109 432q14 55 14 82q0 35 -22.5 44t-98.5 9l11 47q98 8 190 24.5t186 41.5l-172 -693q-10 -35 -14 -66.5t-4 -49.5q0 -53 30.5 -84t82.5 -31q63 0 119.5 44t91.5 122q16 35 30.5 81t26.5 97l137 543q37 0 60.5 1t46 3t49 6t69.5 10l-170 -680 q-16 -68 -21 -97.5t-5 -53.5q0 -29 14 -48.5t37 -19.5q33 0 58.5 24.5t60.5 90.5l49 -25q-53 -106 -109.5 -152t-140.5 -46q-158 0 -178 165q-74 -88 -146.5 -126.5t-164.5 -38.5q-113 0 -179.5 57t-66.5 156z" />
<glyph unicode="&#x439;" horiz-adv-x="1153" d="M119 195q0 51 20 131l109 432q14 55 14 82q0 35 -22.5 44t-98.5 9l11 47q98 8 190 24.5t186 41.5l-172 -693q-10 -35 -14 -66.5t-4 -49.5q0 -53 30.5 -84t82.5 -31q63 0 119.5 44t91.5 122q16 35 30.5 81t26.5 97l137 543q37 0 60.5 1t46 3t49 6t69.5 10l-170 -680 q-16 -68 -21 -97.5t-5 -53.5q0 -29 14 -48.5t37 -19.5q33 0 58.5 24.5t60.5 90.5l49 -25q-53 -106 -109.5 -152t-140.5 -46q-158 0 -178 165q-74 -88 -146.5 -126.5t-164.5 -38.5q-113 0 -179.5 57t-66.5 156zM449 1325v22.5t4 32.5h75q20 -84 59.5 -119.5t110.5 -35.5 q66 0 120 34.5t118 120.5h78q-49 -143 -140.5 -222t-207.5 -79q-102 0 -159.5 64.5t-57.5 181.5z" />
<glyph unicode="&#x43a;" horiz-adv-x="1075" d="M59 0l189 758q6 29 10 51t4 33q0 33 -23.5 42t-99.5 11l13 47q111 6 196.5 23.5t179.5 40.5l-135 -547l340 323q61 57 62 90q0 25 -20.5 35.5t-74.5 14.5l13 51q33 -4 56.5 -5t45 -3t45 -2h53.5h55.5t51.5 2t57.5 3t71.5 5l-12 -51q-74 -10 -134.5 -36t-136.5 -93 l-188 -168l164 -426q33 -84 57.5 -112t69.5 -28q16 0 35.5 4.5t35.5 8.5l-12 -54q-45 -23 -84 -30.5t-80 -7.5q-90 0 -146 49t-102 168l-106 278l-145 -131l-86 -344h-220z" />
<glyph unicode="&#x43b;" horiz-adv-x="1052" d="M-90 72q0 39 21.5 70.5t70.5 31.5q23 0 40 -7t50 -7q23 0 45.5 9t51 49t66.5 121t93 222q39 102 73 182t71.5 134.5t86 83t115.5 28.5q119 0 177.5 -55t58.5 -148q0 -33 -5 -73.5t-20 -87.5l-84 -295q-12 -47 -20 -77t-11.5 -50.5t-4.5 -33.5t-1 -26q0 -59 47 -59 q14 0 26.5 5t25 18.5t27 38t32.5 63.5l49 -19q-35 -111 -92 -160.5t-143 -49.5q-84 0 -135.5 47t-51.5 125q0 25 7.5 64.5t19.5 86.5l92 334q10 35 15.5 73t5.5 66q0 27 -1 49.5t-7.5 39t-21.5 25.5t-46 9t-66 -51t-71.5 -131t-73.5 -174t-72 -181q-43 -111 -83 -183.5 t-78.5 -116.5t-78.5 -62t-83 -18q-53 0 -85 27.5t-32 62.5z" />
<glyph unicode="&#x43c;" horiz-adv-x="1427" d="M-94 76q0 39 21.5 70.5t70.5 31.5q16 0 35.5 -8t34.5 -6q27 2 49 12t47.5 43t56.5 96.5t72 173.5q12 31 26.5 72t27.5 84t24.5 88t17.5 86q4 31 -6 46.5t-28.5 21.5t-41 6h-43.5l11 47q96 4 198.5 23.5t184.5 42.5l32 -644h4l387 607q20 0 51 1t66 3t70 6t65 10 l-163 -659q-12 -47 -18.5 -78t-9.5 -51.5t-4 -32.5t-1 -25q0 -59 47 -59q14 0 28.5 4t29 17.5t29.5 37t34 62.5l49 -19q-35 -111 -100.5 -158.5t-151.5 -47.5q-84 0 -131 51t-47 121q0 20 4 52t10 64.5t12.5 63t12.5 51.5l104 412h-6l-500 -779h-59l-39 779h-6 q-45 -170 -86 -294t-80 -214q-47 -109 -86 -169.5t-73 -89t-62.5 -35.5t-52.5 -7q-53 0 -85 27.5t-32 62.5z" />
<glyph unicode="&#x43d;" horiz-adv-x="1148" d="M59 0l189 758q14 55 14 82q0 35 -22.5 44t-98.5 9l11 47q98 8 190 24.5t186 41.5l-114 -463h334l108 426q37 0 59.5 1t44 3t48 6t69.5 10l-164 -659q-12 -47 -18 -78t-9 -51.5t-4 -32.5t-1 -25q0 -59 47 -59q14 0 28.5 4t28.5 17.5t29.5 37t34.5 62.5l49 -19 q-35 -111 -100.5 -158.5t-151.5 -47.5q-84 0 -131 51t-47 121q0 20 4 52t10 64.5t12 63t13 51.5l22 90h-334l-116 -473h-220z" />
<glyph unicode="&#x43e;" horiz-adv-x="1003" d="M59 340q0 137 43 256t118 206t176.5 137t217.5 50q160 0 250 -96t90 -266q0 -135 -43 -254t-116.5 -206t-174 -137t-214.5 -50q-164 0 -255.5 94t-91.5 266zM268 236q0 -199 144 -199q84 0 145 71.5t115 227.5q35 104 54 205.5t19 187.5q0 39 -5 75t-21.5 64.5t-45 46 t-73.5 17.5q-152 0 -248 -275q-84 -242 -84 -421z" />
<glyph unicode="&#x43f;" horiz-adv-x="1148" d="M59 0l187 750q4 23 10 44t6 44q0 29 -20.5 41t-73.5 12q-4 0 -11 -1t-20 -1l10 47q104 12 177 25.5t143 35.5q2 -16 2 -23v-18q0 -47 -12 -133q135 166 321 166q106 0 169 -55t63 -148q0 -68 -25 -161l-74 -295q-12 -47 -19 -78t-11 -51.5t-5.5 -32.5t-1.5 -25 q0 -59 48 -59q14 0 26.5 5t24.5 18.5t26.5 38t32.5 63.5l49 -19q-35 -111 -92 -160.5t-143 -49.5q-84 0 -135.5 47t-51.5 125q0 25 8.5 64.5t18.5 86.5l84 344q10 39 15.5 72t5.5 57q0 51 -32 81t-85 30q-86 0 -146.5 -63.5t-89.5 -182.5l-159 -641h-220z" />
<glyph unicode="&#x440;" horiz-adv-x="1073" d="M-41 -403l285 1148q16 66 16 91q0 33 -20.5 43t-75.5 14l-27 2l10 45q47 4 83 8t72 9.5t75 12.5t90 19v-41q0 -23 -1 -44t-7 -68q66 82 129 117.5t143 35.5q139 0 218 -91t79 -251q0 -131 -43 -252t-115.5 -213t-168 -147t-199.5 -55q-74 0 -116 25.5t-83 92.5l-125 -501 h-219zM354 207q0 -78 35 -124t94 -46q80 0 141.5 70.5t112.5 220.5q18 55 33.5 113.5t27 114.5t17.5 106.5t6 89.5q0 86 -31.5 133t-89.5 47q-72 0 -135 -64.5t-106 -181.5q-23 -61 -42.5 -129t-32.5 -131.5t-21.5 -120.5t-8.5 -98z" />
<glyph unicode="&#x441;" horiz-adv-x="878" d="M53 322q0 135 45 256.5t121 214t176.5 146.5t210.5 54q47 0 87 -8t87 -29q43 -18 68 -18q14 0 27.5 5t35.5 22l-73 -340h-54q4 31 6.5 48t2.5 40q0 104 -41 160.5t-115 56.5q-172 0 -293 -299q-37 -90 -57.5 -182.5t-20.5 -167.5q0 -106 48 -166t135 -60q94 0 166.5 70 t113.5 201h86q-115 -350 -422 -351q-160 0 -250 91.5t-90 255.5z" />
<glyph unicode="&#x442;" horiz-adv-x="1624" d="M59 0l187 750q4 18 11 44.5t7 45.5q0 29 -21.5 39t-80.5 10h-27l12 47q55 6 99.5 13t82.5 14.5t71.5 15.5t68.5 18v-39q0 -61 -12 -131q59 78 136 120t167 42q86 0 135 -38t72 -124q119 162 301 162q104 0 163.5 -50t59.5 -138q0 -59 -23 -146l-100 -401 q-12 -49 -15 -72.5t-3 -40.5q0 -57 47 -57q25 0 42 13.5t29.5 31.5t21.5 39.5t17 40.5l49 -19q-66 -211 -235 -210q-82 0 -133 47t-51 123q0 27 7 67.5t17 85.5l88 359q10 45 15.5 71.5t5.5 48.5q0 47 -29 74t-76 27q-72 0 -125 -55.5t-77 -153.5l-168 -674h-222l170 682 q16 59 17 100q0 47 -27.5 74t-75.5 27q-74 0 -131 -58.5t-82 -160.5l-165 -664h-220z" />
<glyph unicode="&#x443;" horiz-adv-x="897" d="M-160 -319q0 41 33 73.5t86 32.5q31 0 58.5 -7t52.5 -7q55 0 176 166l67 94l-131 768q-6 35 -13 57.5t-21.5 35.5t-36 19.5t-56.5 8.5l13 51q41 -4 70.5 -5t56 -2t52 -1h56.5h58.5t52 1t57.5 2t74 5l-15 -51q-74 -4 -97 -16.5t-23 -43.5q0 -10 2 -23.5t4 -19.5l65 -534 l303 479q6 8 15.5 24.5t18.5 33t16.5 32.5t7.5 29q0 45 -78 45h-14l-9 49q43 4 74 9t56.5 13.5t49 18.5t52.5 26q8 -29 10 -41t2 -24q0 -27 -15.5 -61.5t-38 -71.5t-47 -72t-40.5 -59l-576 -869q-31 -47 -69.5 -93t-80.5 -83t-85 -59.5t-82 -22.5q-43 0 -77 22.5t-34 70.5z " />
<glyph unicode="&#x444;" horiz-adv-x="1421" d="M59 322q0 131 41 251.5t112 213t163 147.5t196 55q51 0 85 -13t63 -42l53 215q4 20 10 41.5t6 42.5q0 31 -24.5 42t-97.5 11l12 47q100 8 190 23.5t189 40.5l-113 -447q70 39 150 39q139 0 210.5 -91t71.5 -251q0 -131 -41 -252t-111.5 -213t-162.5 -147t-197 -55 q-51 0 -85 13t-62 44l-111 -440h-219l105 423q-63 -41 -150 -40q-139 0 -211 91t-72 251zM260 217q0 -86 27.5 -133t85.5 -47q76 0 141 69l186 752q-35 74 -110 74q-80 0 -137.5 -70.5t-108.5 -220.5q-18 -55 -33.5 -113.5t-27 -115t-17.5 -106.5t-6 -89zM735 113 q33 -76 111 -76q80 0 137 70.5t109 220.5q18 55 33.5 113.5t26.5 114.5t17.5 106.5t6.5 89.5q0 86 -28 133t-85 47q-76 0 -139 -70z" />
<glyph unicode="&#x445;" horiz-adv-x="1011" d="M-109 -6l13 51q35 4 59.5 11t49 23.5t55 44.5t77.5 75l258 256l-124 372q-16 49 -47 71t-91 24l13 51q43 -4 75.5 -5t60 -3t54.5 -2h62h57t46.5 2t46.5 3t54 5l-12 -53q-49 -8 -69.5 -21.5t-20.5 -40.5q0 -10 5 -25.5t15 -50.5l56 -168l176 193q31 35 44 54.5t13 33.5 q0 18 -15.5 25.5t-53.5 7.5h-9l-6 49q70 8 119 23.5t109 43.5q6 -18 9 -28t3 -21q0 -31 -16.5 -61.5t-40 -58t-50 -54l-47.5 -47.5l-215 -221l94 -277q18 -55 34 -90.5t29 -56t27.5 -29t32.5 -8.5q33 0 59.5 23.5t57.5 81.5l47 -25q-51 -100 -113.5 -146t-150.5 -46 q-47 0 -81 10t-60.5 36.5t-49 71.5t-45.5 115l-59 176l-225 -229q-51 -51 -51 -80q0 -16 14 -23.5t59 -11.5l-14 -51q-33 2 -54.5 4t-39 3t-31.5 1h-31h-30.5t-32 -1t-41 -3t-58.5 -4z" />
<glyph unicode="&#x446;" horiz-adv-x="1153" d="M119 195q0 51 20 131l109 432q14 55 14 82q0 35 -22.5 44t-98.5 9l11 47q98 8 190 24.5t186 41.5l-172 -693q-10 -35 -14 -66.5t-4 -49.5q0 -53 30.5 -84t82.5 -31q63 0 119.5 44t91.5 122q16 35 30.5 81t26.5 97l137 543q37 0 60.5 1t46 3t49 6t69.5 10l-170 -680 q-16 -68 -21 -97.5t-5 -53.5q0 -29 14 -48.5t37 -19.5q33 0 58.5 24.5t60.5 90.5l49 -25q-27 -53 -51 -90q-20 -31 -29.5 -52.5t-9.5 -60.5v-27t2 -28q2 -37 6 -59.5t6 -37.5t4 -26.5t2 -25.5q0 -20 -9 -43t-34.5 -45.5t-74 -46t-125.5 -48.5l-15 48q68 20 90 86q10 29 2 53 t-12 41q-4 18 -7 36.5t-3 36.5q0 20 17.5 39t41 35.5t45 31.5t29.5 28h-6q-29 -23 -61.5 -33t-57.5 -10q-158 0 -178 165q-74 -88 -146.5 -126.5t-164.5 -38.5q-113 0 -179.5 57t-66.5 156z" />
<glyph unicode="&#x447;" horiz-adv-x="1089" d="M94 893l10 47q98 8 190.5 24.5t186.5 41.5l-82 -330q-10 -35 -14 -66.5t-4 -50.5q0 -53 30.5 -84t82.5 -31q47 0 96 21.5t90 62.5l113 441q37 0 60.5 1t46 3t49 6t69.5 10l-170 -680q-16 -68 -21.5 -97.5t-5.5 -53.5q0 -29 14.5 -48.5t36.5 -19.5q33 0 58.5 24.5 t60.5 90.5l49 -25q-53 -106 -109.5 -152t-139.5 -46q-90 0 -138.5 50t-48.5 120q0 20 4 52t10.5 64.5t12.5 63t12 51.5l12 45q-59 -47 -117.5 -65.5t-129.5 -18.5q-113 0 -179.5 57.5t-66.5 155.5q0 51 20 131l19 70q14 55 14 82q0 35 -22.5 44t-98.5 9z" />
<glyph unicode="&#x448;" horiz-adv-x="1619" d="M115 170q0 59 22 145l111 443q14 55 14 82q0 35 -22.5 44t-98.5 9l11 47q98 8 190 24.5t186 41.5l-172 -697q-10 -45 -15 -71.5t-5 -49.5q0 -47 28.5 -73.5t75.5 -26.5q72 0 125 55.5t78 153.5l168 672q37 0 60.5 1t46 3t49 6t69.5 10l-174 -700q-16 -59 -16 -101 q0 -47 27.5 -73.5t74.5 -26.5q74 0 128 58.5t81 160.5l166 662q37 0 60.5 1t46 3t49 6t69.5 10l-170 -680q-16 -68 -21 -97.5t-5 -53.5q0 -29 14 -48.5t37 -19.5q33 0 58.5 24.5t60.5 90.5l49 -25q-53 -106 -109.5 -152t-140.5 -46q-82 0 -124 37.5t-52 123.5 q-59 -78 -134 -119.5t-165 -41.5q-86 0 -135 37.5t-72 123.5q-119 -162 -301 -161q-104 0 -163.5 50t-59.5 138z" />
<glyph unicode="&#x449;" horiz-adv-x="1619" d="M115 170q0 59 22 145l111 443q14 55 14 82q0 35 -22.5 44t-98.5 9l11 47q98 8 190 24.5t186 41.5l-172 -697q-10 -45 -15 -71.5t-5 -49.5q0 -47 28.5 -73.5t75.5 -26.5q72 0 125 55.5t78 153.5l168 672q37 0 60.5 1t46 3t49 6t69.5 10l-174 -700q-16 -59 -16 -101 q0 -47 27.5 -73.5t74.5 -26.5q74 0 128 58.5t81 160.5l166 662q37 0 60.5 1t46 3t49 6t69.5 10l-170 -680q-16 -68 -21 -97.5t-5 -53.5q0 -29 14 -48.5t37 -19.5q33 0 58.5 24.5t60.5 90.5l49 -25q-27 -53 -51 -90q-20 -31 -29.5 -52.5t-9.5 -60.5v-27t2 -28q2 -37 6 -59.5 t6 -37.5t4 -26.5t2 -25.5q0 -20 -9 -43t-34.5 -45.5t-74 -46t-126.5 -48.5l-14 48q68 20 90 86q10 29 2 53t-12 41q-4 18 -7 36.5t-3 36.5q0 20 17.5 39t41 35.5t45 31.5t29.5 28h-6q-29 -23 -61.5 -33t-57.5 -10q-82 0 -124 37.5t-52 123.5q-59 -78 -134 -119.5t-165 -41.5 q-86 0 -135 37.5t-72 123.5q-119 -162 -301 -161q-104 0 -163.5 50t-59.5 138z" />
<glyph unicode="&#x44a;" horiz-adv-x="1138" d="M2 672q27 147 98.5 228t175.5 81q16 0 28.5 -1t27 -5t35 -11.5t57.5 -19.5q63 -20 99 -27.5t63 -7.5q29 0 63.5 12.5t75.5 43.5h82l-135 -203q-35 -53 -61.5 -102.5t-47.5 -94.5q41 25 97.5 47.5t113.5 22.5q80 0 134.5 -24.5t87 -62.5t47 -83t14.5 -86q0 -74 -34 -145.5 t-94.5 -127t-141 -90t-175.5 -34.5q-166 0 -254 71.5t-88 204.5q0 20 4.5 56t20.5 84t46 103.5t83 114.5l190 215q-76 -41 -127 -56t-98 -15q-25 0 -49.5 4t-60.5 14q-23 6 -37.5 10.5t-23.5 6.5t-17 3t-17 1q-47 0 -75.5 -30t-49.5 -97h-57zM489 248q0 -39 4.5 -76 t19.5 -64.5t45 -44t79 -16.5q33 0 68.5 28.5t65.5 75t49.5 106t19.5 122.5q0 88 -42 131t-102 43q-39 0 -87 -25.5t-79 -48.5q-29 -86 -35 -144.5t-6 -86.5z" />
<glyph unicode="&#x44b;" horiz-adv-x="1454" d="M127 893l10 47q98 8 190.5 24.5t186.5 41.5l-113 -451q43 27 103.5 53.5t124.5 26.5q80 0 134 -24.5t87 -62.5t47 -83t14 -86q0 -74 -33.5 -145.5t-94 -127t-141.5 -90t-175 -34.5q-166 0 -251 77.5t-85 210.5q0 41 7 85t20 91l75 312q14 55 15 82q0 35 -22.5 44t-98.5 9 zM344 248q0 -39 4 -76t19.5 -64.5t45 -44t79.5 -16.5q33 0 68.5 28.5t65 75t49 106t19.5 122.5q0 88 -42 131t-101 43q-18 0 -42 -7t-46.5 -18.5t-44 -25t-35.5 -25.5l-12 -49q-10 -39 -18.5 -86t-8.5 -94zM975 152q0 20 4 52t10 64.5t12.5 63t12.5 51.5l149 586 q37 0 59.5 1t44 3t48 6t69.5 10l-163 -659q-12 -47 -18.5 -78t-9.5 -51.5t-4 -32.5t-1 -25q0 -59 47 -59q14 0 28.5 4t29 17.5t29.5 37t34 62.5l49 -19q-35 -111 -100.5 -158.5t-151.5 -47.5q-84 0 -131 51t-47 121z" />
<glyph unicode="&#x44c;" horiz-adv-x="993" d="M127 893l10 47q98 8 190.5 24.5t186.5 41.5l-113 -451q43 27 103.5 53.5t124.5 26.5q80 0 134 -24.5t87 -62.5t47 -83t14 -86q0 -74 -33.5 -145.5t-94 -127t-141.5 -90t-175 -34.5q-166 0 -251 77.5t-85 210.5q0 41 7 85t20 91l75 312q14 55 15 82q0 35 -22.5 44t-98.5 9 zM344 248q0 -39 4 -76t19.5 -64.5t45 -44t79.5 -16.5q33 0 68.5 28.5t65 75t49 106t19.5 122.5q0 88 -42 131t-101 43q-18 0 -42 -7t-46.5 -18.5t-44 -25t-35.5 -25.5l-12 -49q-10 -39 -18.5 -86t-8.5 -94z" />
<glyph unicode="&#x44d;" horiz-adv-x="907" d="M41 207q0 47 12 106h76q-10 -57 -10 -96q0 -80 39 -123t131 -43q86 0 152.5 61.5t125.5 200.5q31 74 54 158h-318l21 66h311q18 86 18 155q0 121 -35.5 179.5t-132.5 58.5q-55 0 -96 -22.5t-71.5 -57.5t-54 -80t-42.5 -90h-67l75 287q25 -25 56 -25q25 0 65 14 q55 16 93 24.5t79 8.5q152 0 246 -89t94 -249q0 -109 -26.5 -221.5t-98.5 -214.5q-84 -117 -187.5 -176t-252.5 -59q-135 0 -195.5 59t-60.5 168z" />
<glyph unicode="&#x44e;" horiz-adv-x="1501" d="M59 0l189 758q14 55 14 82q0 35 -22.5 44t-98.5 9l11 47q98 8 190 24.5t186 41.5l-114 -463h170q27 98 77 180t118.5 141.5t153.5 92t179 32.5q160 0 250 -96t90 -266q0 -135 -43 -254t-116.5 -206t-174 -137t-215.5 -50q-164 0 -255 94t-91 266q0 35 3 67.5t7 65.5h-172 l-116 -473h-220zM766 236q0 -199 143 -199q84 0 145.5 71.5t114.5 227.5q35 104 54.5 205.5t19.5 187.5q0 39 -5 75t-21.5 64.5t-45 46t-73.5 17.5q-152 0 -248 -275q-84 -242 -84 -421z" />
<glyph unicode="&#x44f;" horiz-adv-x="1071" d="M-111 27l11 51l16 -6q27 -10 40 -15.5t30 -5.5q23 0 48 9.5t60 58.5l160 227q63 92 139 121q-43 6 -81 18.5t-67.5 36t-47 60t-17.5 90.5q0 76 35 131t89 90t121 52.5t130 17.5h440l-159 -633q-12 -47 -18.5 -78t-9.5 -51.5t-4 -32.5t-1 -25q0 -59 47 -59q14 0 28.5 4 t29 17.5t29.5 37t34 62.5l49 -19q-35 -111 -100.5 -158.5t-151.5 -47.5q-84 0 -131 51t-47 121q0 20 4 52t10 64.5t12.5 63t12.5 51.5l16 66h-8q-35 0 -56.5 -8.5t-39 -23t-30.5 -33.5t-28 -42l-149 -221q-35 -49 -72 -78t-77 -42t-79.5 -16t-76.5 -3q-41 0 -73 10t-67 35z M391 664q0 -66 41 -111t125 -45h102l103 399h-113q-123 0 -190.5 -63.5t-67.5 -179.5z" />
<glyph unicode="&#x451;" horiz-adv-x="901" d="M51 313q0 135 46 257t125 215.5t181.5 148.5t214.5 55q125 0 200 -59.5t75 -159.5q0 -76 -46 -141.5t-127 -113.5t-193.5 -77.5t-247.5 -34.5q-18 -72 -19 -135q0 -98 51 -155.5t142 -57.5q92 0 170.5 69t119.5 185h88q-63 -160 -177.5 -244.5t-266.5 -84.5 q-156 0 -246 89t-90 244zM295 471q86 0 161.5 25.5t131 70.5t87.5 106.5t32 131.5q0 55 -28 91t-73 36q-92 0 -175 -123t-136 -338zM326 1231q0 31 12 59.5t33.5 51t50.5 36t59 13.5q47 0 78 -30t31 -77q0 -66 -45 -112t-109 -46q-47 0 -78.5 30t-31.5 75zM700 1231 q0 31 12.5 59.5t34 51t50 36t59.5 13.5q47 0 78 -30t31 -77q0 -66 -45.5 -112t-108.5 -46q-47 0 -79 30t-32 75z" />
<glyph unicode="&#x452;" horiz-adv-x="1089" d="M59 0l226 901h-142l17 66h141l45 182q10 39 13 56.5t3 27.5q0 29 -23.5 41t-80.5 12h-22l12 47q100 8 190 23.5t189 40.5l-107 -430h404l-17 -66h-403l-62 -244q127 127 285 127q104 0 166.5 -56t62.5 -150q0 -29 -5 -64t-15 -76l-47 -188q-29 -117 -68 -238t-119 -215 q-78 -92 -177 -137t-228 -49l16 67q90 16 144.5 54.5t89.5 109.5q23 49 48.5 128t47.5 171l78 320q8 35 13 61.5t5 48.5q0 51 -31.5 81t-86.5 30q-86 0 -145.5 -62.5t-88.5 -183.5l-108 -436h-220z" />
<glyph unicode="&#x453;" horiz-adv-x="878" d="M66 211q0 61 33.5 117.5t81.5 104.5t102.5 86t97.5 67q31 20 67.5 46.5t67.5 57.5t51.5 64.5t20.5 68.5q0 41 -22.5 69t-82.5 28q-59 0 -125.5 -53.5t-111.5 -159.5h-88q53 139 148 211.5t226 72.5q117 0 194 -42t77 -134q0 -109 -78 -190.5t-221 -171.5 q-35 -23 -72 -47.5t-67.5 -55.5t-50 -67.5t-19.5 -79.5q0 -27 7 -52.5t23.5 -46t44 -33t68.5 -12.5q190 0 275 256h90q-51 -164 -146.5 -251t-250.5 -87q-74 0 -136.5 12.5t-107.5 40t-70.5 71.5t-25.5 110zM375 1085l221 291h319l-442 -291h-98z" />
<glyph unicode="&#x454;" horiz-adv-x="878" d="M53 322q0 135 45 256.5t121 214t176.5 146.5t210.5 54q47 0 87 -8t87 -29q43 -18 68 -18q14 0 27.5 5t35.5 22l-67 -316h-56l3.5 31.5t1.5 32.5q0 104 -41 160.5t-115 56.5q-172 0 -293 -299q-10 -23 -18.5 -47.5t-14.5 -46.5h330l-20 -66h-328q-14 -51 -20.5 -99 t-6.5 -91q0 -106 48 -166t135 -60q92 0 162.5 65.5t113.5 190.5h86q-117 -336 -418 -336q-160 0 -250 91.5t-90 255.5z" />
<glyph unicode="&#x455;" horiz-adv-x="870" d="M27 115l45 221h55q-2 -23 -2 -32v-23q0 -109 59.5 -173.5t159.5 -64.5q45 0 85 15.5t68.5 43t46 65.5t17.5 81q0 49 -21.5 80.5t-86.5 72.5l-109 70q-53 33 -87 61.5t-55.5 55t-29.5 55.5t-8 64q0 61 26.5 113t74.5 90t111.5 60.5t137.5 22.5q45 0 83 -8t91 -27 q45 -16 68 -16q16 0 32.5 6t47.5 23l-58 -279h-57q2 14 2 23.5v15.5q0 90 -47 141.5t-131 51.5q-39 0 -73 -12.5t-59.5 -32t-40 -46t-14.5 -57.5q0 -37 20.5 -64.5t72.5 -60.5l108 -67q59 -37 99 -69t65 -62.5t35 -63.5t10 -72q0 -74 -30.5 -136t-86 -108t-131.5 -72 t-164 -26q-102 0 -177 32t-152 108z" />
<glyph unicode="&#x456;" horiz-adv-x="600" d="M102 147q0 29 11.5 79t31.5 128l109 404q6 23 11 43t5 43q0 29 -23.5 39t-96.5 10l12 47q98 8 191 24.5t190 41.5l-205 -752q-20 -76 -21 -113q0 -57 45 -57q33 0 55.5 24.5t59.5 100.5l49 -19q-37 -111 -95 -160.5t-146 -49.5q-82 0 -132.5 46t-50.5 121zM356 1235 q0 31 12.5 58.5t33 49t47 35t55.5 13.5q47 0 75.5 -31t28.5 -80q0 -63 -41 -108.5t-106 -45.5q-45 0 -75 32t-30 77z" />
<glyph unicode="&#x457;" horiz-adv-x="593" d="M104 147q0 29 10.5 79t30.5 128l107 404q4 16 11 41.5t7 44.5q0 29 -24.5 39t-95.5 10l12 47q98 8 190 24.5t189 41.5l-203 -752q-20 -74 -21 -113q0 -57 48 -57q31 0 53 24.5t61 100.5l49 -19q-37 -111 -95 -160.5t-146 -49.5q-82 0 -132.5 46t-50.5 121zM186 1239 q0 31 12.5 58.5t34 49t49 35t56.5 13.5q47 0 76.5 -30t29.5 -75q0 -63 -44 -108t-105 -45q-47 0 -78 28.5t-31 73.5zM524 1239q0 31 12.5 58.5t34 49t49 35t56.5 13.5q47 0 77.5 -30t30.5 -75q0 -31 -12 -59.5t-32.5 -49t-47 -32.5t-57.5 -12q-47 0 -79 28.5t-32 73.5z" />
<glyph unicode="&#x458;" horiz-adv-x="555" d="M-258 -389l16 67q90 16 144.5 54.5t89.5 109.5q23 49 48.5 128t47.5 171l150 617q6 29 11 51t5 33q0 31 -22.5 41t-94.5 10l10 47q98 10 187.5 24.5t185.5 41.5l-186 -756q-16 -63 -39 -139t-41 -129q-37 -104 -107 -185q-78 -92 -177 -137t-228 -49zM332 1235 q0 31 12 58.5t32.5 49t47.5 35t55 13.5q47 0 76 -31t29 -80q0 -63 -41 -108.5t-107 -45.5q-45 0 -74.5 32t-29.5 77z" />
<glyph unicode="&#x459;" horiz-adv-x="1478" d="M-90 72q0 39 21.5 70.5t70.5 31.5q23 0 40 -7t50 -7q23 0 45.5 9t51 49t66.5 121t93 222q39 102 73 182t71.5 134.5t86 83t115.5 28.5q119 0 177.5 -55t58.5 -148q0 -68 -25 -161l-18 -70q43 27 103.5 53.5t123.5 26.5q80 0 134.5 -24.5t87 -62.5t47 -83t14.5 -86 q0 -74 -34 -145.5t-94.5 -127t-141 -90t-175.5 -34.5q-166 0 -251 77.5t-85 210.5q0 41 8.5 85t18.5 91l45 191q8 35 14.5 73t6.5 66q0 27 -1 49.5t-7.5 39t-21.5 25.5t-46 9t-66 -51t-71.5 -131t-73.5 -174t-72 -181q-43 -111 -83 -183.5t-78.5 -116.5t-78.5 -62t-83 -18 q-53 0 -85 27.5t-32 62.5zM829 248q0 -39 4.5 -76t19.5 -64.5t45 -44t79 -16.5q33 0 68.5 28.5t65.5 75t49.5 106t19.5 122.5q0 88 -42 131t-102 43q-18 0 -41.5 -7t-46 -18.5t-44 -25t-36.5 -25.5l-12 -49q-10 -39 -18.5 -86t-8.5 -94z" />
<glyph unicode="&#x45a;" horiz-adv-x="1558" d="M59 0l189 758q14 55 14 82q0 35 -22.5 44t-98.5 9l11 47q98 8 190 24.5t186 41.5l-114 -463h334l108 426q37 0 59.5 1t44 3t48 6t69.5 10l-110 -434q43 27 103 53.5t124 26.5q80 0 134 -24.5t87 -62.5t47.5 -83t14.5 -86q0 -74 -34 -145.5t-94.5 -127t-141.5 -90 t-175 -34.5q-166 0 -251 77.5t-85 210.5q0 41 8.5 85t18.5 91l6 27h-334l-116 -473h-220zM909 248q0 -39 4.5 -76t19.5 -64.5t45 -44t79 -16.5q33 0 68.5 28.5t65.5 75t49.5 106t19.5 122.5q0 88 -42 131t-102 43q-18 0 -41.5 -7t-46 -18.5t-44 -25t-36.5 -25.5l-12 -49 q-10 -39 -18.5 -86t-8.5 -94z" />
<glyph unicode="&#x45b;" horiz-adv-x="1144" d="M59 0l226 901h-142l17 66h141l45 182q10 39 13 56.5t3 27.5q0 29 -23.5 41t-80.5 12h-22l12 47q100 8 190 23.5t189 40.5l-107 -430h404l-17 -66h-403l-62 -244q127 127 285 127q104 0 166.5 -56t62.5 -150q0 -29 -5 -64t-15 -76l-47 -184q-18 -72 -19 -111q0 -59 48 -59 q25 0 42 13.5t29 31.5t21.5 39.5t17.5 40.5l51 -19q-63 -211 -237 -210q-82 0 -133.5 47t-51.5 125q0 29 8.5 73.5t28.5 128.5l27 107q18 68 18 110q0 51 -31.5 81t-86.5 30q-86 0 -145.5 -62.5t-88.5 -183.5l-108 -436h-220z" />
<glyph unicode="&#x45c;" horiz-adv-x="1075" d="M59 0l189 758q6 29 10 51t4 33q0 33 -23.5 42t-99.5 11l13 47q111 6 196.5 23.5t179.5 40.5l-135 -547l340 323q61 57 62 90q0 25 -20.5 35.5t-74.5 14.5l13 51q33 -4 56.5 -5t45 -3t45 -2h53.5h55.5t51.5 2t57.5 3t71.5 5l-12 -51q-74 -10 -134.5 -36t-136.5 -93 l-188 -168l164 -426q33 -84 57.5 -112t69.5 -28q16 0 35.5 4.5t35.5 8.5l-12 -54q-45 -23 -84 -30.5t-80 -7.5q-90 0 -146 49t-102 168l-106 278l-145 -131l-86 -344h-220zM457 1085l221 291h319l-442 -291h-98z" />
<glyph unicode="&#x45e;" horiz-adv-x="897" d="M-160 -319q0 41 33 73.5t86 32.5q31 0 58.5 -7t52.5 -7q55 0 176 166l67 94l-131 768q-6 35 -13 57.5t-21.5 35.5t-36 19.5t-56.5 8.5l13 51q41 -4 70.5 -5t56 -2t52 -1h56.5h58.5t52 1t57.5 2t74 5l-15 -51q-74 -4 -97 -16.5t-23 -43.5q0 -10 3 -23.5t3 -19.5l65 -534 l303 479q6 8 15.5 24.5t18.5 33t16.5 32.5t7.5 29q0 45 -78 45h-14l-9 49q43 4 74 9t56.5 13.5t49 18.5t52.5 26q8 -29 10 -41t2 -24q0 -27 -15.5 -61.5t-38 -71.5t-47 -72t-40.5 -59l-576 -869q-31 -47 -69.5 -93t-80.5 -83t-85 -59.5t-82 -22.5q-43 0 -77 22.5t-34 70.5z M379 1325v22.5t4 32.5h76q20 -84 59 -119.5t111 -35.5q66 0 120 34.5t117 120.5h78q-49 -143 -140 -222t-208 -79q-102 0 -159.5 64.5t-57.5 181.5z" />
<glyph unicode="&#x45f;" horiz-adv-x="1153" d="M119 195q0 51 20 131l109 432q14 55 14 82q0 35 -22.5 44t-98.5 9l11 47q98 8 190 24.5t186 41.5l-172 -693q-10 -35 -14 -66.5t-4 -49.5q0 -53 30.5 -84t82.5 -31q63 0 119.5 44t91.5 122q16 35 30.5 81t26.5 97l137 543q37 0 60.5 1t46 3t49 6t69.5 10l-170 -680 q-16 -68 -21 -97.5t-5 -53.5q0 -29 14 -48.5t37 -19.5q33 0 58.5 24.5t60.5 90.5l49 -25q-53 -106 -109.5 -152t-140.5 -46q-158 0 -178 165q-74 -88 -146.5 -126.5t-164.5 -38.5q-113 0 -179.5 57t-66.5 156zM377 -362q68 20 90 86q10 29 2 53t-12 41q-4 18 -7.5 36.5 t-3.5 36.5q0 20 17.5 39t41 35.5t45 31.5t30.5 28l36 -15q-2 -10 -2 -33v-27t2 -28q2 -37 6.5 -59.5t6.5 -37.5t4 -26.5t2 -25.5q0 -20 -9.5 -43t-35 -45.5t-73.5 -46t-126 -48.5z" />
<glyph unicode="&#x490;" d="M-57 -6l16 65q55 2 90 8.5t55.5 20.5t33 41t22.5 72l239 958q12 49 13 76q0 33 -30 46t-114 17l17 68h563q47 0 86 7t71.5 25.5t63.5 47.5t64 72q29 37 45 62.5t39 72.5h59l-146 -361h-466l-273 -1091q-12 -47 -12 -72q0 -37 29.5 -51.5t115.5 -18.5l-16 -65q-47 4 -81 7 t-64.5 4t-62.5 2t-71 1q-41 0 -71.5 -1t-62.5 -2t-67.5 -4t-84.5 -7z" />
<glyph unicode="&#x491;" horiz-adv-x="901" d="M-68 -6l13 51q49 2 79.5 7t49 17.5t29 35t20.5 59.5l158 633q8 37 9 59.5t-11.5 34.5t-40 17t-76.5 7l12 52h492q51 0 89 8t71.5 32.5t69.5 69.5t83 119h53l-114 -295h-396l-184 -745q-10 -41 -10 -62.5t15 -32t49 -13.5t89 -5l-12 -49q-78 8 -151.5 10t-141.5 2h-58.5 t-53 -2t-58.5 -4t-74 -6z" />
<glyph unicode="&#x2000;" horiz-adv-x="898" />
<glyph unicode="&#x2001;" horiz-adv-x="1796" />
<glyph unicode="&#x2002;" horiz-adv-x="898" />
<glyph unicode="&#x2003;" horiz-adv-x="1796" />
<glyph unicode="&#x2004;" horiz-adv-x="598" />
<glyph unicode="&#x2005;" horiz-adv-x="449" />
<glyph unicode="&#x2006;" horiz-adv-x="299" />
<glyph unicode="&#x2007;" horiz-adv-x="299" />
<glyph unicode="&#x2008;" horiz-adv-x="224" />
<glyph unicode="&#x2009;" horiz-adv-x="359" />
<glyph unicode="&#x200a;" horiz-adv-x="99" />
<glyph unicode="&#x2010;" horiz-adv-x="430" d="M-8 432l41 168h430l-41 -168h-430z" />
<glyph unicode="&#x2011;" horiz-adv-x="430" d="M-8 432l41 168h430l-41 -168h-430z" />
<glyph unicode="&#x2012;" horiz-adv-x="430" d="M-8 432l41 168h430l-41 -168h-430z" />
<glyph unicode="&#x2013;" d="M0 432l41 168h983l-43 -168h-981z" />
<glyph unicode="&#x2014;" horiz-adv-x="2048" d="M0 432l41 168h2007l-43 -168h-2005z" />
<glyph unicode="&#x2018;" horiz-adv-x="483" d="M246 991q0 84 66.5 186.5t191.5 211.5h82q-66 -66 -109 -133.5t-61 -133.5q45 -2 71.5 -28.5t26.5 -73.5q0 -59 -45 -101t-107 -42q-53 0 -84.5 31.5t-31.5 82.5z" />
<glyph unicode="&#x2019;" horiz-adv-x="483" d="M231 877q66 66 109 133t61 133q-47 2 -72.5 27.5t-25.5 72.5q0 59 44 102.5t108 43.5q53 0 84.5 -32t31.5 -83q0 -86 -66.5 -187.5t-191.5 -209.5h-82z" />
<glyph unicode="&#x201a;" horiz-adv-x="483" d="M-55 -274q66 66 108.5 133t61.5 133q-47 2 -73 28.5t-26 73.5q0 59 44 101.5t108 42.5q53 0 85 -32t32 -83q0 -84 -66.5 -186.5t-191.5 -210.5h-82z" />
<glyph unicode="&#x201c;" horiz-adv-x="817" d="M244 991q0 84 66.5 186.5t191.5 211.5h84q-66 -66 -110 -133.5t-62 -133.5q47 -2 72.5 -28.5t25.5 -73.5q0 -59 -44 -101t-108 -42q-53 0 -84.5 31.5t-31.5 82.5zM580 991q0 84 66.5 186.5t189.5 211.5h84q-131 -131 -172 -267q47 -2 73.5 -28.5t26.5 -73.5 q0 -59 -45 -101t-107 -42q-53 0 -84.5 31.5t-31.5 82.5z" />
<glyph unicode="&#x201d;" horiz-adv-x="817" d="M231 877q66 66 109 133t61 133q-47 2 -72.5 27.5t-25.5 72.5q0 59 44 102.5t108 43.5q53 0 84.5 -32t31.5 -83q0 -86 -66.5 -187.5t-191.5 -209.5h-82zM565 877q131 131 172 266q-100 4 -100 100q0 59 45 102.5t106 43.5q53 0 85 -32t32 -83q0 -86 -66.5 -187.5 t-189.5 -209.5h-84z" />
<glyph unicode="&#x201e;" horiz-adv-x="817" d="M-55 -274q66 66 108.5 133t61.5 133q-47 2 -73 28.5t-26 73.5q0 59 44 101.5t108 42.5q53 0 85 -32t32 -83q0 -84 -66.5 -186.5t-191.5 -210.5h-82zM279 -274q133 133 170 266q-45 2 -72 28.5t-27 73.5q0 59 45 101.5t107 42.5q53 0 84.5 -32t31.5 -83 q0 -84 -66.5 -186.5t-189.5 -210.5h-83z" />
<glyph unicode="&#x2020;" d="M205 795l43 180l299 -23l84 379h194l-106 -379l311 23l-45 -180l-299 22l-256 -1067h-194l278 1067z" />
<glyph unicode="&#x2021;" d="M23 92l43 172l309 -22l151 614l-319 -20l43 170l309 -23l74 348h190l-100 -348l321 23l-43 -170l-309 20l-153 -614l319 22l-43 -172l-309 23l-76 -365h-192l104 365z" />
<glyph unicode="&#x2022;" horiz-adv-x="1366" d="M422 696q0 59 22.5 111.5t60.5 91.5t89 61.5t111 22.5q57 0 108 -22.5t89 -61.5t60.5 -91.5t22.5 -111.5t-22.5 -111.5t-60.5 -91t-89 -61t-108 -22.5q-59 0 -110.5 22.5t-89.5 61t-60.5 91t-22.5 111.5z" />
<glyph unicode="&#x2026;" horiz-adv-x="1572" d="M31 96q0 35 14 67t37.5 55.5t54.5 37.5t66 14q53 0 87 -32.5t34 -85.5q0 -70 -50.5 -121t-119.5 -51q-53 0 -88 32.5t-35 83.5zM555 96q0 35 14.5 67t38 55.5t54 37.5t65.5 14q53 0 87 -32.5t34 -85.5q0 -70 -50 -121t-120 -51q-53 0 -88 32.5t-35 83.5zM1079 96 q0 35 14.5 67t38 55.5t54.5 37.5t65 14q53 0 87 -32.5t34 -85.5q0 -70 -50 -121t-120 -51q-53 0 -88 32.5t-35 83.5z" />
<glyph unicode="&#x202f;" horiz-adv-x="359" />
<glyph unicode="&#x2030;" horiz-adv-x="2064" d="M184 946q0 86 32 164t85 137.5t123 94t145 34.5q100 0 156.5 -58.5t56.5 -164.5q0 -86 -30.5 -165t-83 -138t-120 -94t-142.5 -35q-104 0 -163 59.5t-59 165.5zM254 0l870 1333h99l-871 -1333h-98zM330 891q0 -115 88 -115q55 0 97 49t77 158q23 66 34 122t11 101 q0 53 -22.5 83t-61.5 30q-104 0 -176 -195q-23 -59 -35 -122.5t-12 -110.5zM713 215q0 86 31.5 164t84 137t122 94t145.5 35q102 0 157.5 -59.5t55.5 -163.5q0 -86 -31 -165t-82 -138.5t-119.5 -94t-144.5 -34.5q-104 0 -161.5 59.5t-57.5 165.5zM856 160q0 -115 88 -115 q57 0 99 49t77 156q43 135 43 225q0 53 -21.5 83t-60.5 30q-106 0 -178 -195q-23 -59 -35 -122.5t-12 -110.5zM1391 215q0 86 31.5 164t84 137t122 94t145.5 35q102 0 157.5 -59.5t55.5 -163.5q0 -86 -31 -165t-82 -138.5t-119.5 -94t-144.5 -34.5q-104 0 -161.5 59.5 t-57.5 165.5zM1534 160q0 -115 88 -115q57 0 99 49t77 156q23 66 33 124t10 101q0 53 -21.5 83t-60.5 30q-55 0 -97 -46t-79 -149q-23 -59 -36 -121.5t-13 -111.5z" />
<glyph unicode="&#x2039;" horiz-adv-x="548" d="M100 489l385 478h72l-272 -478l30 -489h-61z" />
<glyph unicode="&#x203a;" horiz-adv-x="548" d="M0 0l272 477l-30 490h61l154 -490l-385 -477h-72z" />
<glyph unicode="&#x205f;" horiz-adv-x="449" />
<glyph unicode="&#x2122;" horiz-adv-x="1617" d="M176 584l12 47q33 2 53.5 5t31 10t16.5 20.5t12 38.5l152 608h-37q-33 0 -57.5 -7.5t-46 -25.5t-42 -48t-45.5 -75h-47l90 209h543l-14 -209h-47q0 90 -24 123t-91 33h-37l-149 -600q-4 -14 -6.5 -25.5t-2.5 -19.5q0 -20 15.5 -26.5t68.5 -10.5l-12 -47q-29 2 -50.5 4 t-40 3t-36.5 1h-39q-43 0 -76.5 -2t-93.5 -6zM686 584l12 47q33 4 51.5 11t30.5 22q8 8 15.5 18t14.5 30.5t17.5 53.5t24.5 84l37 135l78 262q6 18 6 41q0 16 -17.5 22.5t-68.5 10.5l12 49q41 -4 62.5 -5t54.5 -1q37 0 63.5 1t69.5 5l70 -541l340 541q47 -4 73.5 -5t59.5 -1 q31 0 53 1t63 5l-12 -49q-35 -2 -54.5 -5t-31.5 -11.5t-17 -21.5t-12 -36l-116 -514q-4 -14 -7.5 -31.5t-3.5 -31.5t9.5 -21.5t21.5 -11.5t26.5 -5t24.5 -1l-12 -47q-29 2 -51.5 4t-41 3t-36.5 1h-39q-41 0 -74.5 -2t-95.5 -6l12 47q33 2 52.5 5t32 10t18.5 21.5t12 37.5 l141 569l-419 -664h-25l-84 666l-158 -571q-6 -29 -6 -39q0 -18 14.5 -24.5t65.5 -10.5l-10 -47q-43 4 -66.5 4h-52.5h-53.5t-73.5 -4z" />
<glyph unicode="&#x2206;" horiz-adv-x="1366" d="M6 0l627 1397h96l631 -1397h-1354zM188 184q0 -35 22.5 -49t76.5 -14h805l-467 1067l-406 -909q-16 -35 -23.5 -56.5t-7.5 -38.5z" />
<glyph unicode="&#x221a;" horiz-adv-x="1366" d="M35 733v60h467l162 -691l370 1584h297v-60h-239l-379 -1626h-191l-176 733h-311z" />
<glyph unicode="&#x221e;" horiz-adv-x="1366" d="M16 674q0 76 26 143.5t72 117.5t106.5 78.5t131.5 28.5q193 0 346 -247q10 10 15.5 19t9.5 15q39 63 72.5 105.5t68.5 67t73 33.5t87 9q68 0 127 -26.5t103 -74.5t70 -112.5t26 -138.5q0 -78 -28 -145.5t-75 -117.5t-112.5 -78.5t-139.5 -28.5q-102 0 -195 64.5 t-165 186.5q-43 -66 -80 -110.5t-73 -72.5t-74.5 -39t-83.5 -11q-66 0 -121.5 25.5t-97.5 70.5t-65.5 106.5t-23.5 131.5zM70 682q0 -96 69.5 -151.5t188.5 -55.5q92 0 151.5 34t116.5 118q-37 57 -65.5 98t-54 68.5t-50.5 45t-55 31.5q-25 10 -53.5 17.5t-55.5 7.5 q-84 0 -138 -60.5t-54 -152.5zM731 748q29 -45 51.5 -79t44 -58.5t42 -44t44.5 -36.5q88 -63 179 -63q43 0 79.5 17.5t64.5 47t43 69.5t15 87q0 102 -72.5 159.5t-201.5 57.5q-102 0 -169 -35.5t-120 -121.5z" />
<glyph unicode="&#x2248;" d="M53 438q141 205 303 205q35 0 76 -9t119 -34q68 -23 105.5 -31t72.5 -8q113 0 205 109l37 -21q-59 -96 -139 -149.5t-160 -53.5q-29 0 -54.5 6.5t-76.5 20.5l-66 19q-76 23 -114.5 30.5t-77.5 7.5q-27 0 -47.5 -4t-40 -14t-40 -27.5t-46.5 -46.5q-4 -4 -8.5 -9t-10.5 -11 zM53 762q141 205 303 205q35 0 76 -9.5t119 -33.5q66 -23 105.5 -31t70.5 -8q113 0 207 106l37 -20q-59 -94 -139 -147.5t-160 -53.5q-29 0 -53.5 4t-77.5 21l-66 20q-78 25 -115.5 32t-76.5 7q-27 0 -47.5 -4t-40 -14.5t-40 -27.5t-46.5 -46q-4 -6 -19 -21z" />
<glyph unicode="&#x2260;" d="M39 920h518l119 254l90 -41l-98 -213h315v-99h-360l-93 -194h453l2 -99h-500l-127 -270l-90 43l107 227h-334v99h379l92 194h-471z" />
<glyph unicode="&#x2264;" d="M86 0v80h852v-80h-852zM86 711v14l852 543v-86l-614 -400l614 -409v-234z" />
<glyph unicode="&#x2265;" d="M86 0v80h852v-80h-852zM86 139v88l614 398l-614 411v232l852 -576v-14z" />
<glyph unicode="&#xe000;" horiz-adv-x="1044" d="M0 0v1044h1044v-1044h-1044z" />
</font>
</defs>
</svg>
